<?xml version="1.0" standalone="no"?>
<!DOCTYPE svg PUBLIC "-//W3C//DTD SVG 20010904//EN"
 "http://www.w3.org/TR/2001/REC-SVG-20010904/DTD/svg10.dtd">
<svg version="1.0" xmlns="http://www.w3.org/2000/svg"
 width="506.000000pt" height="506.000000pt" viewBox="0 0 506.000000 506.000000"
 preserveAspectRatio="xMidYMid meet">
<metadata>
Created by potrace 1.14, written by Peter Selinger 2001-2017
</metadata>
<g transform="translate(0.000000,506.000000) scale(0.100000,-0.100000)"
fill="#000000" stroke="none">
<path d="M2398 5056 c-1 -2 -43 -6 -92 -10 -79 -5 -145 -14 -241 -31 -594
-108 -1174 -466 -1542 -950 -201 -266 -374 -619 -438 -895 -2 -8 -10 -46 -19
-84 -51 -218 -74 -541 -53 -746 14 -132 18 -154 47 -275 133 -558 504 -1035
1020 -1313 160 -86 419 -178 560 -198 19 -2 46 -7 60 -10 14 -4 39 -8 55 -10
17 -1 53 -6 80 -9 63 -7 298 -8 359 0 25 3 67 7 94 11 26 3 81 12 122 21 41 8
85 17 98 19 13 3 78 23 145 44 220 72 466 207 647 355 68 56 209 195 257 255
l28 35 -35 -27 c-222 -172 -508 -299 -755 -333 -22 -3 -48 -8 -58 -11 -32 -10
-299 -12 -367 -3 -36 4 -85 11 -110 14 -138 18 -389 104 -508 174 -29 17 -55
31 -59 31 -10 0 -166 112 -222 159 -203 171 -365 391 -465 632 -37 91 -83 241
-92 299 -3 19 -7 41 -9 48 -19 56 -27 395 -13 522 30 258 94 472 213 715 60
123 160 293 185 315 3 3 18 23 34 45 80 110 239 272 362 371 292 233 688 407
1029 450 22 3 65 9 95 14 56 9 445 6 490 -3 14 -3 43 -8 65 -11 324 -43 685
-194 961 -403 42 -32 89 -67 103 -77 l26 -20 -24 30 c-68 81 -274 273 -379
351 -351 264 -779 439 -1192 488 -30 4 -68 9 -85 11 -34 6 -371 14 -377 10z"/>
<path d="M2865 4539 c-135 -13 -161 -17 -320 -54 -95 -23 -235 -71 -323 -111
-41 -19 -75 -34 -77 -34 -1 0 -40 -21 -86 -47 -163 -91 -306 -200 -439 -333
-106 -106 -153 -160 -124 -139 178 120 235 155 324 197 121 58 250 104 335
119 11 2 36 8 55 13 94 24 416 35 535 18 59 -9 73 -12 170 -33 36 -7 159 -44
180 -54 11 -5 50 -21 87 -36 37 -15 107 -50 157 -78 381 -219 656 -568 776
-987 31 -110 37 -138 55 -275 8 -65 5 -356 -4 -418 -3 -20 -8 -54 -11 -75
-104 -732 -599 -1371 -1290 -1667 -94 -40 -240 -90 -289 -100 -11 -2 -21 -4
-21 -5 0 -2 2 -1 -105 -23 -168 -35 -280 -45 -470 -42 -85 2 -173 6 -195 9
-22 4 -71 11 -110 17 -340 51 -727 224 -1004 449 -71 58 -71 50 3 -29 425
-452 967 -729 1561 -796 33 -4 74 -9 90 -11 43 -5 385 -5 415 0 14 2 52 7 85
10 194 19 516 103 685 178 125 56 204 96 290 146 523 303 916 781 1115 1354
35 100 79 260 90 328 3 19 8 46 10 60 3 14 7 34 9 45 4 21 15 113 22 180 5 52
6 383 1 415 -3 14 -8 50 -11 80 -33 254 -140 552 -282 780 -324 525 -876 874
-1494 946 -80 9 -314 11 -395 3z"/>
</g>
</svg>
