<?xml version="1.0" standalone="no"?>
<!DOCTYPE svg PUBLIC "-//W3C//DTD SVG 20010904//EN"
 "http://www.w3.org/TR/2001/REC-SVG-20010904/DTD/svg10.dtd">
<svg version="1.0" xmlns="http://www.w3.org/2000/svg"
 width="90.000000pt" height="90.000000pt" viewBox="0 0 90.000000 90.000000"
 preserveAspectRatio="xMidYMid meet">
<metadata>
Created by potrace 1.14, written by Peter Selinger 2001-2017
</metadata>
<g transform="translate(0.000000,90.000000) scale(0.100000,-0.100000)"
fill="#000000" stroke="none">
<path d="M394 875 c-44 -10 -124 -49 -124 -60 0 -3 14 -20 31 -39 l30 -35 44
24 c51 26 98 26 153 -3 61 -32 61 -40 -3 -126 l-59 -78 24 -44 c14 -24 28 -43
31 -42 9 4 189 245 189 253 0 15 -108 112 -142 128 -58 27 -117 35 -174 22z"/>
<path d="M202 744 c-130 -153 -233 -537 -178 -669 20 -46 42 -64 79 -65 68 0
139 61 257 225 l62 85 -27 46 c-15 25 -30 42 -34 37 -4 -4 -46 -60 -93 -123
-47 -63 -100 -130 -119 -148 -30 -31 -34 -32 -40 -14 -13 35 6 181 37 290 27
92 93 234 105 226 4 -2 38 -50 75 -107 37 -56 101 -152 141 -214 160 -242 298
-346 381 -287 33 23 44 59 43 139 -2 88 -15 167 -48 275 -23 79 -99 250 -111
250 -5 0 -22 -20 -48 -57 -15 -21 -14 -27 15 -87 70 -145 123 -420 83 -434
-25 -8 -158 142 -257 293 -160 242 -264 385 -279 385 -2 0 -22 -21 -44 -46z"/>
</g>
</svg>
