<?xml version="1.0" encoding="utf-8"?>
<!-- Generator: Adobe Illustrator 25.0.0, SVG Export Plug-In . SVG Version: 6.00 Build 0)  -->
<svg version="1.1" id="Layer_1" xmlns="http://www.w3.org/2000/svg"
	xmlns:xlink="http://www.w3.org/1999/xlink" x="0px" y="0px"
	viewBox="0 0 610.7 610.7" style="enable-background:new 0 0 610.7 610.7;" xml:space="preserve">
<style type="text/css">
	.st0{fill:none;}
	.st1{clip-path:url(#SVGID_2_);}
	.st2{fill:url(#USGS_22_Gravel_Beach);}
</style>
<pattern  y="610.7" width="264.5" height="262.1" patternUnits="userSpaceOnUse" id="USGS_22_Gravel_Beach" viewBox="0 -262.2 264.5 262.1" style="overflow:visible;">
	<g>
		<rect y="-262.2" class="st0" width="264.5" height="262.1"/>
		<g>
			<defs>
				<rect id="SVGID_1_" y="-262.2" width="264.5" height="262.1"/>
			</defs>
			<clipPath id="SVGID_2_">
				<use xlink:href="#SVGID_1_"  style="overflow:visible;" />
			</clipPath>
				<path class="st1" fill="#1e1e1e"
				d="M76.4-11c-0.3,0-0.7,0.1-0.9,0.4c-0.2,0.3-0.4,0.6-0.4,0.9s0.1,0.7,0.4,0.9c0.5,0.5,1.3,0.5,1.8,0
				c0.3-0.3,0.4-0.6,0.4-0.9s-0.1-0.7-0.4-0.9C77-10.9,76.7-11,76.4-11z"/>
			<path class="st1" fill="#1e1e1e"
				d="M72.7-30.3c-0.3,0-0.7,0.1-0.9,0.4c-0.2,0.3-0.4,0.6-0.4,0.9c0,0.4,0.1,0.7,0.4,0.9c0.4,0.4,1.3,0.5,1.8,0
				c0.2-0.2,0.4-0.6,0.4-0.9c0-0.3-0.1-0.7-0.4-0.9C73.4-30.1,73.1-30.3,72.7-30.3z"/>
			<path class="st1" fill="#1e1e1e"
				d="M73.6-38.5c-0.3,0-0.7,0.1-0.9,0.4c-0.2,0.3-0.4,0.6-0.4,0.9c0,0.3,0.1,0.7,0.4,0.9c0.5,0.5,1.3,0.5,1.8,0
				c0.2-0.3,0.4-0.6,0.4-0.9c0-0.3-0.1-0.7-0.4-0.9C74.3-38.4,74-38.5,73.6-38.5z"/>
			<path class="st1" fill="#1e1e1e"
				d="M55.3-38.5c-0.3,0-0.7,0.1-0.9,0.4c-0.2,0.3-0.4,0.6-0.4,0.9c0,0.4,0.1,0.7,0.4,0.9c0.4,0.4,1.3,0.5,1.8,0
				c0.2-0.3,0.4-0.6,0.4-0.9c0-0.3-0.1-0.7-0.4-0.9C56-38.4,55.7-38.5,55.3-38.5z"/>
			<path class="st1" fill="#1e1e1e"
				d="M82.8-73.3c-0.3,0-0.7,0.1-0.9,0.4c-0.2,0.3-0.4,0.6-0.4,0.9s0.1,0.7,0.4,0.9c0.5,0.5,1.3,0.5,1.8,0
				c0.3-0.3,0.4-0.6,0.4-0.9s-0.1-0.7-0.4-0.9C83.5-73.2,83.1-73.3,82.8-73.3z"/>
			<path class="st1" fill="#1e1e1e"
				d="M55.3-84.3c-0.3,0-0.7,0.1-0.9,0.4C54.2-83.6,54-83.3,54-83c0,0.4,0.1,0.7,0.4,0.9c0.4,0.4,1.3,0.5,1.8,0
				c0.2-0.2,0.4-0.6,0.4-0.9c0-0.3-0.1-0.7-0.4-0.9C56-84.2,55.7-84.3,55.3-84.3z"/>
			<path class="st1" fill="#1e1e1e"
				d="M50.7-88c-0.3,0-0.7,0.1-0.9,0.4c-0.2,0.3-0.4,0.6-0.4,0.9s0.1,0.7,0.4,0.9c0.5,0.5,1.3,0.5,1.8,0
				c0.3-0.3,0.4-0.6,0.4-0.9s-0.1-0.7-0.4-0.9C51.4-87.8,51.1-88,50.7-88z"/>
			<path class="st1" fill="#1e1e1e"
				d="M87.4-99c-0.3,0-0.7,0.1-0.9,0.4c-0.2,0.3-0.4,0.6-0.4,0.9c0,0.4,0.1,0.7,0.4,0.9c0.4,0.4,1.3,0.5,1.8,0
				c0.2-0.3,0.4-0.6,0.4-0.9c0-0.3-0.1-0.7-0.4-0.9S87.7-99,87.4-99z"/>
			<path class="st1" fill="#1e1e1e"
				d="M112.1-94.4c-0.3,0-0.7,0.1-0.9,0.4c-0.2,0.3-0.4,0.6-0.4,0.9s0.1,0.7,0.4,0.9c0.5,0.5,1.3,0.5,1.8,0
				c0.3-0.3,0.4-0.6,0.4-0.9s-0.1-0.7-0.4-0.9C112.8-94.3,112.4-94.4,112.1-94.4z"/>
			<path class="st1" fill="#1e1e1e"
				d="M113.9-85.2c-0.3,0-0.7,0.1-0.9,0.4c-0.2,0.3-0.4,0.6-0.4,0.9c0,0.4,0.1,0.7,0.4,0.9c0.4,0.5,1.3,0.5,1.8,0
				c0.2-0.2,0.4-0.6,0.4-0.9c0-0.3-0.1-0.7-0.4-0.9C114.6-85.1,114.3-85.2,113.9-85.2z"/>
			<path class="st1" fill="#1e1e1e"
				d="M106.6-66.9c-0.3,0-0.7,0.1-0.9,0.4c-0.2,0.3-0.4,0.6-0.4,0.9c0,0.3,0.1,0.7,0.4,0.9c0.5,0.5,1.3,0.5,1.8,0
				c0.3-0.3,0.4-0.6,0.4-0.9c0-0.3-0.1-0.7-0.4-0.9C107.3-66.8,106.9-66.9,106.6-66.9z"/>
			<path class="st1" fill="#1e1e1e"
				d="M124-72.4c-0.3,0-0.7,0.1-0.9,0.4c-0.2,0.3-0.4,0.6-0.4,0.9s0.1,0.7,0.4,0.9c0.5,0.5,1.3,0.5,1.8,0
				c0.3-0.3,0.4-0.6,0.4-0.9s-0.1-0.7-0.4-0.9C124.7-72.3,124.3-72.4,124-72.4z"/>
			<path class="st1" fill="#1e1e1e"
				d="M114.9-54.1c-0.3,0-0.7,0.1-0.9,0.4c-0.2,0.3-0.4,0.6-0.4,0.9c0,0.3,0.1,0.7,0.4,0.9c0.5,0.5,1.3,0.5,1.8,0
				c0.3-0.3,0.4-0.6,0.4-0.9c0-0.3-0.1-0.7-0.4-0.9C115.5-54,115.2-54.1,114.9-54.1z"/>
			<path class="st1" fill="#1e1e1e"
				d="M115.8-43.1c-0.3,0-0.7,0.1-0.9,0.4c-0.2,0.3-0.4,0.6-0.4,0.9c0,0.3,0.1,0.7,0.4,0.9c0.5,0.5,1.3,0.5,1.8,0
				c0.2-0.3,0.4-0.6,0.4-0.9c0-0.3-0.1-0.7-0.4-0.9C116.4-43,116.1-43.1,115.8-43.1z"/>
			<path class="st1" fill="#1e1e1e"
				d="M117.6-25.7c-0.3,0-0.7,0.1-0.9,0.4c-0.2,0.3-0.4,0.6-0.4,0.9s0.1,0.7,0.4,0.9c0.5,0.5,1.3,0.5,1.8,0
				c0.3-0.3,0.4-0.6,0.4-0.9s-0.1-0.7-0.4-0.9C118.3-25.6,117.9-25.7,117.6-25.7z"/>
			<path class="st1" fill="#1e1e1e"
				d="M116.7-11c-0.3,0-0.7,0.1-0.9,0.4c-0.2,0.3-0.4,0.6-0.4,0.9c0,0.4,0.1,0.7,0.4,0.9c0.4,0.5,1.3,0.5,1.8,0
				c0.2-0.2,0.4-0.6,0.4-0.9c0-0.3-0.1-0.7-0.4-0.9C117.4-10.9,117-11,116.7-11z"/>
			<path class="st1" fill="#1e1e1e"
				d="M124-4.6c-0.3,0-0.7,0.1-0.9,0.4c-0.2,0.2-0.4,0.6-0.4,0.9c0,0.4,0.1,0.7,0.4,0.9c0.4,0.5,1.3,0.5,1.8,0
				c0.2-0.2,0.4-0.6,0.4-0.9s-0.1-0.7-0.4-0.9C124.7-4.5,124.3-4.6,124-4.6z"/>
			<path class="st1" fill="#1e1e1e"
				d="M151.5-25.7c-0.3,0-0.7,0.1-0.9,0.4c-0.3,0.3-0.4,0.6-0.4,0.9s0.1,0.7,0.4,0.9c0.6,0.5,1.3,0.5,1.8,0
				c0.3-0.3,0.4-0.6,0.4-0.9s-0.1-0.7-0.4-0.9C152.2-25.6,151.8-25.7,151.5-25.7z"/>
			<path class="st1" fill="#1e1e1e"
				d="M166.1-24.8c-0.3,0-0.7,0.1-0.9,0.4c-0.2,0.3-0.4,0.6-0.4,0.9s0.1,0.7,0.4,0.9c0.5,0.5,1.3,0.5,1.8,0
				c0.3-0.3,0.4-0.6,0.4-0.9s-0.1-0.7-0.4-0.9C166.8-24.6,166.5-24.8,166.1-24.8z"/>
			<path class="st1" fill="#1e1e1e"
				d="M155.2-49.5c-0.3,0-0.7,0.1-0.9,0.4c-0.2,0.3-0.4,0.6-0.4,0.9c0,0.4,0.1,0.7,0.4,0.9c0.4,0.5,1.3,0.5,1.8,0
				c0.2-0.2,0.4-0.6,0.4-0.9c0-0.3-0.1-0.7-0.4-0.9C155.8-49.4,155.5-49.5,155.2-49.5z"/>
			<path class="st1" fill="#1e1e1e"
				d="M171.6-52.3c-0.3,0-0.7,0.1-0.9,0.4c-0.2,0.3-0.4,0.6-0.4,0.9c0,0.4,0.1,0.7,0.4,0.9c0.4,0.5,1.3,0.5,1.8,0
				c0.2-0.3,0.4-0.6,0.4-0.9c0-0.3-0.1-0.6-0.4-0.9C172.3-52.1,172-52.3,171.6-52.3z"/>
			<path class="st1" fill="#1e1e1e"
				d="M171.6-59.6c-0.3,0-0.7,0.1-0.9,0.4c-0.2,0.3-0.4,0.6-0.4,0.9c0,0.4,0.1,0.7,0.4,0.9c0.4,0.5,1.3,0.5,1.8,0
				c0.2-0.3,0.4-0.6,0.4-0.9c0-0.3-0.1-0.6-0.4-0.9C172.3-59.4,172-59.6,171.6-59.6z"/>
			<path class="st1" fill="#1e1e1e"
				d="M142.3-76.1c-0.3,0-0.7,0.1-0.9,0.4c-0.2,0.3-0.4,0.6-0.4,0.9s0.1,0.7,0.4,0.9c0.5,0.5,1.3,0.5,1.8,0
				c0.3-0.2,0.4-0.6,0.4-0.9s-0.1-0.7-0.4-0.9C143-75.9,142.7-76.1,142.3-76.1z"/>
			<path class="st1" fill="#1e1e1e"
				d="M183.6-49.5c-0.3,0-0.7,0.1-0.9,0.4c-0.3,0.3-0.4,0.6-0.4,0.9c0,0.3,0.1,0.7,0.4,0.9c0.5,0.5,1.4,0.5,1.8,0
				c0.2-0.3,0.4-0.6,0.4-0.9c0-0.3-0.1-0.7-0.4-0.9C184.2-49.4,183.9-49.5,183.6-49.5z"/>
			<path class="st1" fill="#1e1e1e"
				d="M190.9-44c-0.3,0-0.7,0.1-0.9,0.4c-0.2,0.2-0.4,0.6-0.4,0.9c0,0.4,0.1,0.7,0.4,0.9c0.4,0.4,1.3,0.5,1.8,0
				c0.2-0.2,0.4-0.6,0.4-0.9c0-0.3-0.1-0.7-0.4-0.9C191.5-43.9,191.2-44,190.9-44z"/>
			<path class="st1" fill="#1e1e1e"
				d="M200-40.4c-0.3,0-0.7,0.1-0.9,0.4c-0.2,0.2-0.4,0.6-0.4,0.9c0,0.4,0.1,0.7,0.4,0.9c0.4,0.5,1.3,0.5,1.8,0
				c0.2-0.2,0.4-0.6,0.4-0.9c0-0.3-0.1-0.7-0.4-0.9C200.7-40.2,200.4-40.4,200-40.4z"/>
			<path class="st1" fill="#1e1e1e"
				d="M206.5-2.8c-0.3,0-0.7,0.1-0.9,0.4s-0.4,0.6-0.4,0.9s0.1,0.7,0.4,0.9c0.4,0.5,1.4,0.5,1.8,0
				c0.2-0.2,0.4-0.6,0.4-0.9s-0.1-0.7-0.4-0.9C207.1-2.7,206.8-2.8,206.5-2.8z"/>
			<path class="st1" fill="#1e1e1e"
				d="M248.6-11c-0.3,0-0.7,0.1-0.9,0.4c-0.2,0.3-0.4,0.6-0.4,0.9c0,0.4,0.1,0.7,0.4,0.9c0.4,0.4,1.3,0.5,1.8,0
				c0.2-0.2,0.4-0.6,0.4-0.9c0-0.3-0.1-0.7-0.4-0.9C249.2-10.9,249-11,248.6-11z"/>
			<path class="st1" fill="#1e1e1e"
				d="M248.6-37.6c-0.3,0-0.7,0.1-0.9,0.4c-0.2,0.2-0.4,0.6-0.4,0.9c0,0.3,0.1,0.7,0.4,0.9c0.5,0.5,1.3,0.5,1.8,0
				c0.2-0.3,0.4-0.6,0.4-0.9c0-0.4-0.1-0.7-0.4-0.9C249.2-37.5,248.9-37.6,248.6-37.6z"/>
			<path class="st1" fill="#1e1e1e"
				d="M234.8-44.9c-0.3,0-0.7,0.1-0.9,0.4c-0.2,0.3-0.4,0.6-0.4,0.9c0,0.3,0.1,0.7,0.4,0.9c0.5,0.5,1.3,0.5,1.8,0
				c0.3-0.3,0.4-0.6,0.4-0.9c0-0.3-0.1-0.7-0.4-0.9C235.5-44.8,235.2-44.9,234.8-44.9z"/>
			<path class="st1" fill="#1e1e1e"
				d="M238.5-57.8c-0.3,0-0.7,0.1-0.9,0.4c-0.2,0.3-0.4,0.6-0.4,0.9c0,0.4,0.1,0.7,0.4,0.9c0.4,0.4,1.4,0.5,1.8,0
				c0.2-0.3,0.4-0.6,0.4-0.9c0-0.3-0.1-0.7-0.4-0.9C239.2-57.6,238.8-57.8,238.5-57.8z"/>
			<path class="st1" fill="#1e1e1e"
				d="M233.9-72.4c-0.3,0-0.7,0.1-0.9,0.4c-0.2,0.2-0.4,0.6-0.4,0.9s0.1,0.7,0.4,0.9c0.5,0.5,1.4,0.5,1.8,0
				c0.2-0.3,0.4-0.6,0.4-0.9c0-0.4-0.1-0.7-0.4-0.9C234.6-72.3,234.3-72.4,233.9-72.4z"/>
			<path class="st1" fill="#1e1e1e"
				d="M242.2-72.4c-0.3,0-0.7,0.1-0.9,0.4c-0.2,0.3-0.4,0.6-0.4,0.9c0,0.4,0.1,0.7,0.4,0.9c0.4,0.4,1.3,0.5,1.8,0
				c0.2-0.2,0.4-0.6,0.4-0.9c0-0.3-0.1-0.7-0.4-0.9C242.8-72.3,242.5-72.4,242.2-72.4z"/>
			<path class="st1" fill="#1e1e1e"
				d="M248.6-77.9c-0.3,0-0.7,0.1-0.9,0.4c-0.2,0.3-0.4,0.6-0.4,0.9s0.1,0.7,0.4,0.9c0.5,0.5,1.3,0.5,1.8,0
				c0.2-0.3,0.4-0.6,0.4-0.9s-0.1-0.7-0.4-0.9C249.2-77.8,248.9-77.9,248.6-77.9z"/>
			<path class="st1" fill="#1e1e1e"
				d="M25.1-191.5c-0.3,0-0.7,0.1-0.9,0.4c-0.2,0.3-0.4,0.6-0.4,0.9c0,0.3,0.1,0.7,0.4,0.9c0.4,0.4,1.3,0.5,1.8,0
				c0.2-0.3,0.4-0.6,0.4-0.9c0-0.3-0.1-0.7-0.4-0.9C25.8-191.3,25.4-191.5,25.1-191.5z"/>
			<path class="st1" fill="#1e1e1e"
				d="M26-199.7c-0.3,0-0.7,0.1-0.9,0.4c-0.2,0.3-0.4,0.6-0.4,0.9c0,0.3,0.1,0.7,0.4,0.9c0.4,0.5,1.3,0.5,1.8,0
				c0.2-0.3,0.4-0.6,0.4-0.9c0-0.3-0.1-0.7-0.4-0.9C26.7-199.6,26.3-199.7,26-199.7z"/>
			<path class="st1" fill="#1e1e1e"
				d="M7.7-199.7c-0.3,0-0.7,0.1-0.9,0.4c-0.2,0.3-0.4,0.6-0.4,0.9c0,0.3,0.1,0.7,0.4,0.9c0.4,0.4,1.3,0.5,1.8,0
				c0.2-0.3,0.4-0.6,0.4-0.9c0-0.3-0.1-0.7-0.4-0.9C8.4-199.6,8-199.7,7.7-199.7z"/>
			<path class="st1" fill="#1e1e1e"
				d="M35.2-234.5c-0.3,0-0.7,0.1-0.9,0.4s-0.4,0.6-0.4,0.9c0,0.3,0.1,0.7,0.4,0.9c0.5,0.5,1.3,0.5,1.8,0
				c0.3-0.3,0.4-0.6,0.4-0.9c0-0.3-0.1-0.7-0.4-0.9C35.8-234.4,35.5-234.5,35.2-234.5z"/>
			<path class="st1" fill="#1e1e1e"
				d="M3.1-249.2c-0.3,0-0.7,0.1-0.9,0.4c-0.2,0.2-0.4,0.6-0.4,0.9c0,0.3,0.1,0.7,0.4,0.9c0.4,0.4,1.3,0.5,1.8,0
				c0.2-0.3,0.4-0.6,0.4-0.9c0-0.3-0.1-0.7-0.4-0.9C3.8-249,3.4-249.2,3.1-249.2z"/>
			<path class="st1" fill="#1e1e1e"
				d="M39.8-260.2c-0.3,0-0.7,0.1-0.9,0.4s-0.4,0.6-0.4,0.9c0,0.3,0.1,0.7,0.4,0.9c0.4,0.4,1.4,0.5,1.8,0
				c0.2-0.2,0.3-0.6,0.3-0.9c0-0.3-0.1-0.7-0.4-0.9C40.4-260,40.1-260.2,39.8-260.2z"/>
			<path class="st1" fill="#1e1e1e"
				d="M66.3-246.4c-0.3,0-0.7,0.1-0.9,0.4c-0.2,0.2-0.4,0.5-0.4,0.8c0,0.3,0.1,0.7,0.4,0.9c0.4,0.4,1.3,0.5,1.8,0
				c0.3-0.3,0.4-0.6,0.4-0.9c0-0.3-0.1-0.7-0.4-0.9C67-246.3,66.6-246.4,66.3-246.4z"/>
			<path class="st1" fill="#1e1e1e"
				d="M59-228.1c-0.3,0-0.7,0.1-0.9,0.4c-0.2,0.3-0.4,0.6-0.4,0.9s0.1,0.7,0.4,0.9c0.4,0.5,1.3,0.5,1.8,0
				c0.2-0.3,0.4-0.6,0.4-0.9s-0.1-0.7-0.4-0.9C59.6-228,59.3-228.1,59-228.1z"/>
			<path class="st1" fill="#1e1e1e"
				d="M70.9-211.6c-0.3,0-0.7,0.1-0.9,0.4c-0.2,0.3-0.4,0.6-0.4,0.9c0,0.4,0.1,0.7,0.4,0.9c0.4,0.4,1.3,0.5,1.8,0
				c0.2-0.2,0.4-0.6,0.4-0.9s-0.1-0.7-0.4-0.9C71.6-211.5,71.2-211.6,70.9-211.6z"/>
			<path class="st1" fill="#1e1e1e"
				d="M68.1-204.3c-0.3,0-0.7,0.1-0.9,0.4c-0.2,0.3-0.4,0.6-0.4,0.9c0,0.4,0.1,0.7,0.4,0.9c0.4,0.4,1.3,0.5,1.8,0
				c0.2-0.2,0.4-0.6,0.4-0.9s-0.1-0.7-0.4-0.9C68.8-204.2,68.5-204.3,68.1-204.3z"/>
			<path class="st1" fill="#1e1e1e"
				d="M59-200.6c-0.3,0-0.7,0.1-0.9,0.4c-0.2,0.3-0.4,0.6-0.4,0.9c0,0.4,0.1,0.7,0.4,0.9c0.4,0.4,1.3,0.5,1.8,0
				c0.2-0.2,0.4-0.6,0.4-0.9s-0.1-0.7-0.4-0.9C59.6-200.5,59.3-200.6,59-200.6z"/>
			<path class="st1" fill="#1e1e1e"
				d="M70-186.9c-0.3,0-0.7,0.1-0.9,0.4c-0.2,0.3-0.4,0.6-0.4,0.9c0,0.4,0.1,0.7,0.4,0.9c0.4,0.4,1.3,0.5,1.8,0
				c0.2-0.2,0.4-0.6,0.4-0.9c0-0.3-0.1-0.7-0.4-0.9C70.6-186.8,70.3-186.9,70-186.9z"/>
			<path class="st1" fill="#1e1e1e"
				d="M69.1-172.3c-0.3,0-0.7,0.1-0.9,0.4c-0.2,0.3-0.4,0.6-0.4,0.9s0.1,0.7,0.4,0.9c0.4,0.4,1.3,0.5,1.8,0
				c0.2-0.3,0.4-0.6,0.4-0.9s-0.1-0.7-0.4-0.9C69.7-172.1,69.4-172.3,69.1-172.3z"/>
			<path class="st1" fill="#1e1e1e"
				d="M59-173.2c-0.3,0-0.7,0.1-0.9,0.4s-0.4,0.6-0.4,0.9c0,0.3,0.1,0.7,0.4,0.9c0.4,0.5,1.3,0.5,1.8,0
				c0.2-0.3,0.4-0.6,0.4-0.9c0-0.3-0.1-0.7-0.4-0.9C59.6-173,59.3-173.2,59-173.2z"/>
			<path class="st1" fill="#1e1e1e"
				d="M118.5-186c-0.3,0-0.7,0.1-0.9,0.4c-0.2,0.3-0.4,0.6-0.4,0.9c0,0.4,0.1,0.7,0.4,0.9c0.4,0.5,1.3,0.5,1.8,0
				c0.2-0.2,0.4-0.6,0.4-0.9c0-0.3-0.1-0.7-0.4-0.9C119.2-185.8,118.9-186,118.5-186z"/>
			<path class="st1" fill="#1e1e1e"
				d="M99.3-198.8c-0.3,0-0.7,0.1-0.9,0.4c-0.2,0.2-0.4,0.5-0.4,0.9c0,0.3,0.1,0.7,0.4,0.9c0.5,0.5,1.3,0.5,1.8,0
				c0.2-0.3,0.4-0.6,0.4-0.9c0-0.3-0.1-0.7-0.4-0.9C99.9-198.7,99.6-198.8,99.3-198.8z"/>
			<path class="st1" fill="#1e1e1e"
				d="M116.7-204.3c-0.3,0-0.7,0.1-0.9,0.4c-0.2,0.3-0.4,0.6-0.4,0.9s0.1,0.7,0.4,0.9c0.5,0.5,1.3,0.5,1.8,0
				c0.2-0.3,0.4-0.6,0.4-0.9s-0.1-0.7-0.4-0.9C117.4-204.2,117-204.3,116.7-204.3z"/>
			<path class="st1" fill="#1e1e1e"
				d="M116.7-210.7c-0.3,0-0.7,0.1-0.9,0.4c-0.3,0.3-0.4,0.6-0.4,0.9c0,0.4,0.1,0.7,0.4,0.9c0.5,0.5,1.3,0.5,1.8,0
				c0.2-0.2,0.4-0.6,0.4-0.9c0-0.3-0.1-0.7-0.4-0.9C117.4-210.6,117-210.7,116.7-210.7z"/>
			<path class="st1" fill="#1e1e1e"
				d="M124-213.5c-0.3,0-0.7,0.1-0.9,0.4c-0.2,0.3-0.4,0.6-0.4,0.9c0,0.3,0.1,0.7,0.4,0.9c0.5,0.5,1.4,0.5,1.8,0
				c0.2-0.3,0.4-0.6,0.4-0.9s-0.1-0.7-0.4-0.9C124.7-213.3,124.3-213.5,124-213.5z"/>
			<path class="st1" fill="#1e1e1e"
				d="M94.7-237.3c-0.3,0-0.7,0.1-0.9,0.4c-0.2,0.3-0.4,0.6-0.4,0.9c0,0.3,0.1,0.7,0.4,0.9c0.5,0.5,1.3,0.5,1.8,0
				c0.3-0.3,0.4-0.6,0.4-0.9c0-0.3-0.1-0.7-0.4-0.9C95.4-237.1,95-237.3,94.7-237.3z"/>
			<path class="st1" fill="#1e1e1e"
				d="M131.3-206.1c-0.3,0-0.7,0.1-0.9,0.4c-0.2,0.3-0.4,0.6-0.4,0.9s0.1,0.7,0.4,0.9c0.6,0.5,1.3,0.5,1.8,0
				c0.3-0.3,0.4-0.6,0.4-0.9s-0.1-0.7-0.4-0.9C132-206,131.7-206.1,131.3-206.1z"/>
			<path class="st1" fill="#1e1e1e"
				d="M143.3-205.2c-0.3,0-0.7,0.1-0.9,0.4c-0.3,0.3-0.4,0.6-0.4,0.9c0,0.3,0.1,0.7,0.4,0.9c0.5,0.5,1.3,0.5,1.8,0
				c0.2-0.3,0.4-0.6,0.4-0.9c0-0.3-0.1-0.7-0.4-0.9C143.9-205.1,143.6-205.2,143.3-205.2z"/>
			<path class="st1" fill="#1e1e1e"
				d="M152.4-186c-0.3,0-0.7,0.1-0.9,0.4s-0.4,0.6-0.4,0.9c0,0.3,0.1,0.7,0.4,0.9c0.5,0.5,1.3,0.5,1.8,0
				c0.2-0.3,0.4-0.6,0.4-0.9c0-0.3-0.1-0.7-0.4-0.9C153.1-185.8,152.7-186,152.4-186z"/>
			<path class="st1" fill="#1e1e1e"
				d="M158.8-164c-0.3,0-0.7,0.1-0.9,0.4c-0.2,0.2-0.4,0.6-0.4,0.9c0,0.3,0.1,0.7,0.4,0.9c0.5,0.5,1.3,0.5,1.8,0
				c0.2-0.3,0.4-0.6,0.4-0.9c0-0.3-0.1-0.7-0.4-0.9C159.5-163.9,159.2-164,158.8-164z"/>
			<path class="st1" fill="#1e1e1e"
				d="M186.3-185.1c-0.3,0-0.7,0.1-0.9,0.4c-0.3,0.3-0.4,0.6-0.4,0.9s0.1,0.7,0.4,0.9c0.5,0.5,1.3,0.5,1.8,0
				c0.2-0.3,0.4-0.6,0.4-0.9s-0.1-0.7-0.4-0.9C187-184.9,186.6-185.1,186.3-185.1z"/>
			<path class="st1" fill="#1e1e1e"
				d="M190-170.4c-0.3,0-0.7,0.1-0.9,0.4c-0.2,0.2-0.4,0.6-0.4,0.9c0,0.4,0.1,0.7,0.4,0.9c0.4,0.4,1.3,0.5,1.8,0
				c0.2-0.2,0.4-0.6,0.4-0.9c0-0.3-0.1-0.7-0.4-0.9C190.6-170.3,190.3-170.4,190-170.4z"/>
			<path class="st1" fill="#1e1e1e"
				d="M201-172.3c-0.4,0-0.7,0.1-0.9,0.4c-0.2,0.2-0.4,0.6-0.4,0.9s0.1,0.7,0.4,0.9c0.5,0.5,1.3,0.5,1.8,0
				c0.3-0.3,0.4-0.6,0.4-0.9s-0.1-0.7-0.4-0.9C201.6-172.1,201.3-172.3,201-172.3z"/>
			<path class="st1" fill="#1e1e1e"
				d="M201-198.8c-0.4,0-0.7,0.1-0.9,0.4c-0.2,0.2-0.4,0.6-0.4,0.9c0,0.4,0.1,0.7,0.4,0.9c0.4,0.4,1.3,0.5,1.8,0
				c0.2-0.2,0.4-0.6,0.4-0.9s-0.1-0.7-0.4-0.9C201.6-198.7,201.3-198.8,201-198.8z"/>
			<path class="st1" fill="#1e1e1e"
				d="M187.2-206.1c-0.3,0-0.7,0.1-0.9,0.4c-0.2,0.3-0.4,0.6-0.4,0.9s0.1,0.7,0.4,0.9c0.5,0.5,1.4,0.5,1.8,0
				c0.3-0.3,0.4-0.6,0.4-0.9s-0.1-0.7-0.4-0.9C187.9-206,187.6-206.1,187.2-206.1z"/>
			<path class="st1" fill="#1e1e1e"
				d="M186.3-233.6c-0.3,0-0.7,0.1-0.9,0.4c-0.2,0.3-0.4,0.6-0.4,0.9s0.1,0.7,0.4,0.9c0.6,0.6,1.3,0.5,1.8,0
				c0.3-0.3,0.4-0.6,0.4-0.9s-0.1-0.7-0.4-0.9C187-233.5,186.7-233.6,186.3-233.6z"/>
			<path class="st1" fill="#1e1e1e"
				d="M194.5-233.6c-0.3,0-0.7,0.1-0.9,0.4c-0.2,0.3-0.4,0.6-0.4,0.9c0,0.4,0.1,0.7,0.4,0.9c0.4,0.4,1.3,0.5,1.8,0
				c0.2-0.2,0.4-0.5,0.4-0.9c0-0.3-0.1-0.7-0.4-0.9C195.2-233.5,194.9-233.6,194.5-233.6z"/>
			<path class="st1" fill="#1e1e1e"
				d="M204.6-230.9c-0.3,0-0.7,0.1-0.9,0.4c-0.2,0.3-0.4,0.6-0.4,0.9s0.1,0.7,0.4,0.9c0.5,0.5,1.3,0.5,1.8,0
				c0.3-0.3,0.4-0.6,0.4-0.9s-0.1-0.7-0.4-0.9C205.3-230.7,205-230.9,204.6-230.9z"/>
			<path class="st1" fill="#1e1e1e"
				d="M212.9-225.4c-0.3,0-0.7,0.1-0.9,0.4c-0.2,0.2-0.4,0.6-0.4,0.9s0.1,0.7,0.4,0.9c0.5,0.5,1.3,0.5,1.8,0
				c0.2-0.3,0.4-0.6,0.4-0.9s-0.1-0.7-0.4-0.9C213.5-225.2,213.2-225.4,212.9-225.4z"/>
			<path class="st1" fill="#1e1e1e"
				d="M76.4-99c-0.3,0-0.7,0.1-0.9,0.4c-0.2,0.3-0.4,0.6-0.4,0.9c0,0.3,0.1,0.7,0.4,0.9c0.5,0.5,1.3,0.5,1.8,0
				c0.3-0.3,0.4-0.6,0.4-0.9c0-0.3-0.1-0.7-0.4-0.9S76.7-99,76.4-99z"/>
			<path class="st1" fill="#1e1e1e"
				d="M82.8-88c-0.3,0-0.7,0.1-0.9,0.4c-0.2,0.3-0.4,0.6-0.4,0.9s0.1,0.7,0.4,0.9c0.5,0.5,1.3,0.5,1.8,0
				c0.2-0.3,0.4-0.6,0.4-0.9s-0.1-0.7-0.4-0.9C83.5-87.8,83.1-88,82.8-88z"/>
			<path class="st1" fill="#1e1e1e"
				d="M142.3-90.7c-0.3,0-0.7,0.1-0.9,0.4c-0.2,0.3-0.4,0.6-0.4,0.9s0.1,0.7,0.4,0.9c0.5,0.5,1.4,0.5,1.8,0
				c0.2-0.3,0.4-0.6,0.4-0.9s-0.1-0.7-0.4-0.9C143-90.6,142.7-90.7,142.3-90.7z"/>
			<path class="st1" fill="#1e1e1e"
				d="M168.9-106.3c-0.3,0-0.7,0.1-0.9,0.4c-0.3,0.3-0.4,0.6-0.4,0.9c0,0.3,0.1,0.7,0.4,0.9c0.6,0.6,1.3,0.5,1.8,0
				c0.3-0.3,0.4-0.6,0.4-0.9c0-0.3-0.1-0.7-0.4-0.9C169.6-106.2,169.2-106.3,168.9-106.3z"/>
			<path class="st1" fill="#1e1e1e"
				d="M201.9-102.6c-0.3,0-0.7,0.1-0.9,0.4c-0.2,0.3-0.4,0.6-0.4,0.9c0,0.3,0.1,0.7,0.4,0.9c0.4,0.4,1.3,0.5,1.8,0
				c0.2-0.3,0.4-0.6,0.4-0.9c0-0.3-0.1-0.7-0.4-0.9C202.5-102.5,202.2-102.6,201.9-102.6z"/>
			<path class="st1" fill="#1e1e1e"
				d="M187.2-92.6c-0.3,0-0.7,0.1-0.9,0.4c-0.2,0.3-0.4,0.6-0.4,0.9s0.1,0.7,0.4,0.9c0.5,0.5,1.4,0.5,1.8,0
				c0.3-0.3,0.4-0.6,0.4-0.9s-0.1-0.7-0.4-0.9C187.9-92.4,187.5-92.6,187.2-92.6z"/>
			<path class="st1" fill="#1e1e1e"
				d="M190-108.1c-0.4,0-0.7,0.1-0.9,0.4c-0.2,0.3-0.4,0.6-0.4,0.9c0,0.3,0.1,0.7,0.4,0.9c0.5,0.5,1.3,0.5,1.8,0
				c0.3-0.3,0.4-0.6,0.4-0.9c0-0.3-0.1-0.7-0.4-0.9C190.6-108,190.3-108.1,190-108.1z"/>
			<path class="st1" fill="#1e1e1e"
				d="M228.4-130.1c-0.3,0-0.7,0.1-0.9,0.4s-0.4,0.6-0.4,0.9c0,0.4,0.1,0.7,0.4,0.9c0.4,0.4,1.3,0.5,1.8,0
				c0.2-0.2,0.4-0.5,0.4-0.9c0-0.3-0.1-0.7-0.4-0.9C229.1-130,228.8-130.1,228.4-130.1z"/>
			<path class="st1" fill="#1e1e1e"
				d="M207.4-142.9c-0.3,0-0.7,0.1-0.9,0.4s-0.4,0.6-0.4,0.9c0,0.3,0.1,0.7,0.4,0.9c0.5,0.5,1.3,0.5,1.8,0
				c0.3-0.3,0.4-0.6,0.4-0.9c0-0.3-0.1-0.7-0.4-0.9C208-142.8,207.7-142.9,207.4-142.9z"/>
			<path class="st1" fill="#1e1e1e"
				d="M176.2-136.5c-0.3,0-0.7,0.1-0.9,0.4c-0.3,0.3-0.4,0.6-0.4,0.9c0,0.3,0.1,0.7,0.4,0.9c0.4,0.5,1.4,0.5,1.8,0
				c0.2-0.2,0.4-0.5,0.4-0.9c0-0.3-0.1-0.7-0.4-0.9C176.9-136.4,176.6-136.5,176.2-136.5z"/>
			<path class="st1" fill="#1e1e1e"
				d="M175.3-151.2c-0.4,0-0.7,0.1-0.9,0.4c-0.2,0.2-0.4,0.6-0.4,0.9c0,0.3,0.1,0.7,0.4,0.9c0.4,0.4,1.3,0.5,1.8,0
				c0.2-0.3,0.4-0.6,0.4-0.9c0-0.3-0.1-0.7-0.4-0.9C176-151,175.6-151.2,175.3-151.2z"/>
			<path class="st1" fill="#1e1e1e"
				d="M195.5-164.9c-0.3,0-0.7,0.1-0.9,0.4c-0.2,0.2-0.4,0.5-0.4,0.9c0,0.4,0.1,0.7,0.4,0.9c0.4,0.4,1.3,0.5,1.8,0
				c0.2-0.3,0.4-0.6,0.4-0.9c0-0.3-0.1-0.7-0.4-0.9C196.1-164.8,195.8-164.9,195.5-164.9z"/>
			<path class="st1" fill="#1e1e1e"
				d="M227.5-175.9c-0.3,0-0.7,0.1-0.9,0.4s-0.4,0.6-0.4,0.9c0,0.4,0.1,0.7,0.4,0.9c0.4,0.4,1.3,0.5,1.8,0
				c0.2-0.2,0.4-0.5,0.4-0.9c0-0.3-0.1-0.7-0.4-0.9C228.2-175.8,227.9-175.9,227.5-175.9z"/>
			<path class="st1" fill="#1e1e1e"
				d="M237.6-189.7c-0.3,0-0.7,0.1-0.9,0.4s-0.4,0.6-0.4,0.9c0,0.4,0.1,0.7,0.4,0.9c0.4,0.4,1.3,0.5,1.8,0
				c0.2-0.2,0.4-0.6,0.4-0.9c0-0.3-0.1-0.7-0.4-0.9C238.3-189.5,237.9-189.7,237.6-189.7z"/>
			<path class="st1" fill="#1e1e1e"
				d="M254.1-164.9c-0.3,0-0.7,0.1-0.9,0.4s-0.4,0.6-0.4,0.9c0,0.3,0.1,0.7,0.4,0.9c0.4,0.5,1.3,0.5,1.8,0
				c0.2-0.3,0.4-0.6,0.4-0.9c0-0.3-0.1-0.7-0.4-0.9C254.7-164.8,254.4-164.9,254.1-164.9z"/>
			<path class="st1" fill="#1e1e1e"
				d="M219.3-142.9c-0.4,0-0.7,0.1-0.9,0.4c-0.2,0.2-0.4,0.6-0.4,0.9c0,0.3,0.1,0.7,0.4,0.9c0.4,0.5,1.3,0.5,1.8,0
				c0.2-0.3,0.4-0.6,0.4-0.9c0-0.3-0.1-0.7-0.4-0.9C219.9-142.8,219.6-142.9,219.3-142.9z"/>
			<path class="st1" fill="#1e1e1e"
				d="M118.5-172.3c-0.3,0-0.7,0.1-0.9,0.4c-0.2,0.3-0.4,0.6-0.4,0.9s0.1,0.7,0.4,0.9c0.5,0.5,1.3,0.5,1.8,0
				c0.3-0.3,0.4-0.6,0.4-0.9s-0.1-0.7-0.4-0.9C119.2-172.1,118.9-172.3,118.5-172.3z"/>
			<path class="st1" fill="#1e1e1e"
				d="M95.6-138.4c-0.3,0-0.7,0.1-0.9,0.4c-0.2,0.3-0.4,0.6-0.4,0.9c0,0.3,0.1,0.7,0.4,0.9c0.5,0.5,1.3,0.5,1.8,0
				c0.3-0.3,0.4-0.6,0.4-0.9c0-0.3-0.1-0.7-0.4-0.9C96.3-138.2,96-138.4,95.6-138.4z"/>
			<path class="st1" fill="#1e1e1e"
				d="M108.4-130.1c-0.3,0-0.7,0.1-0.9,0.4c-0.3,0.3-0.4,0.6-0.4,0.9c0,0.4,0.1,0.7,0.4,0.9c0.4,0.4,1.3,0.5,1.8,0
				c0.2-0.2,0.4-0.6,0.4-0.9c0-0.3-0.1-0.7-0.4-0.9C109.1-130,108.8-130.1,108.4-130.1z"/>
			<path class="st1" fill="#1e1e1e"
				d="M37.9-108.1c-0.3,0-0.7,0.1-0.9,0.4c-0.2,0.3-0.4,0.6-0.4,0.9c0,0.3,0.1,0.7,0.4,0.9c0.5,0.4,1.3,0.5,1.8,0
				c0.3-0.2,0.4-0.6,0.4-0.9c0-0.3-0.1-0.7-0.4-0.9C38.6-108,38.3-108.1,37.9-108.1z"/>
			<path class="st1" fill="#1e1e1e"
				d="M21.4-115.5c-0.3,0-0.7,0.1-0.9,0.4c-0.2,0.3-0.4,0.6-0.4,0.9c0,0.3,0.1,0.7,0.4,0.9c0.5,0.5,1.3,0.5,1.8,0
				c0.3-0.2,0.4-0.6,0.4-0.9c0-0.4-0.1-0.7-0.4-0.9C22.1-115.3,21.8-115.5,21.4-115.5z"/>
			<path class="st1" fill="#1e1e1e"
				d="M8.6-129.2c-0.3,0-0.7,0.1-0.9,0.4c-0.2,0.3-0.4,0.6-0.4,0.9c0,0.3,0.1,0.7,0.4,0.9c0.4,0.5,1.4,0.5,1.8,0
				c0.3-0.3,0.4-0.6,0.4-0.9c0-0.3-0.1-0.6-0.4-0.9C9.3-129.1,8.9-129.2,8.6-129.2z"/>
			<path class="st1" fill="#1e1e1e"
				d="M61.7-153.9c-0.3,0-0.7,0.1-0.9,0.4s-0.4,0.6-0.4,0.9c0,0.4,0.1,0.7,0.4,0.9c0.5,0.5,1.3,0.5,1.8,0
				c0.2-0.2,0.4-0.6,0.4-0.9c0-0.3-0.1-0.7-0.4-0.9C62.4-153.8,62.1-153.9,61.7-153.9z"/>
			<path class="st1" fill="#1e1e1e"
				d="M46.2-132c-0.3,0-0.7,0.1-0.9,0.4c-0.2,0.3-0.4,0.6-0.4,0.9c0,0.4,0.1,0.7,0.4,0.9c0.4,0.4,1.3,0.5,1.8,0
				c0.2-0.2,0.4-0.6,0.4-0.9s-0.1-0.7-0.4-0.9C46.8-131.8,46.5-132,46.2-132z"/>
			<path class="st1" fill="#1e1e1e"
				d="M96.5-110.9c-0.3,0-0.7,0.1-0.9,0.4c-0.2,0.3-0.4,0.6-0.4,0.9c0,0.3,0.1,0.7,0.4,0.9c0.5,0.5,1.4,0.5,1.8,0
				c0.2-0.3,0.4-0.6,0.4-0.9c0-0.3-0.1-0.7-0.4-0.9C97.2-110.7,96.9-110.9,96.5-110.9z"/>
			<path class="st1" fill="#1e1e1e"
				d="M143.3-112.7c-0.3,0-0.7,0.1-0.9,0.4c-0.2,0.3-0.4,0.6-0.4,0.9c0,0.3,0.1,0.7,0.4,0.9c0.5,0.5,1.3,0.5,1.8,0
				c0.2-0.3,0.4-0.6,0.4-0.9c0-0.3-0.1-0.7-0.4-0.9C143.9-112.6,143.6-112.7,143.3-112.7z"/>
			<path class="st1" fill="#1e1e1e"
				d="M139.6-120c-0.3,0-0.7,0.1-0.9,0.4c-0.2,0.3-0.4,0.6-0.4,0.9c0,0.3,0.1,0.7,0.4,0.9c0.5,0.5,1.4,0.5,1.8,0
				c0.2-0.3,0.4-0.6,0.4-0.9c0-0.3-0.1-0.7-0.4-0.9C140.2-119.9,139.9-120,139.6-120z"/>
			<path class="st1" fill="#1e1e1e"
				d="M102-153.9c-0.3,0-0.7,0.1-0.9,0.4c-0.2,0.3-0.4,0.6-0.4,0.9c0,0.3,0.1,0.7,0.4,0.9c0.5,0.5,1.4,0.5,1.8,0
				c0.2-0.3,0.4-0.6,0.4-0.9c0-0.3-0.1-0.7-0.4-0.9C102.7-153.8,102.4-153.9,102-153.9z"/>
			<path class="st1" fill="#1e1e1e"
				d="M23.3-75.2c-0.3,0-0.7,0.1-0.9,0.4c-0.2,0.3-0.4,0.6-0.4,0.9s0.1,0.7,0.4,0.9c0.4,0.5,1.3,0.5,1.8,0
				c0.2-0.3,0.4-0.6,0.4-0.9s-0.1-0.7-0.4-0.9S23.6-75.2,23.3-75.2z"/>
			<path class="st1" fill="#1e1e1e"
				d="M35.2-68.8c-0.3,0-0.7,0.1-0.9,0.4c-0.2,0.3-0.4,0.6-0.4,0.9c0,0.3,0.1,0.7,0.4,0.9c0.5,0.5,1.3,0.5,1.8,0
				c0.3-0.3,0.4-0.6,0.4-0.9c0-0.3-0.1-0.7-0.4-0.9C35.8-68.6,35.5-68.8,35.2-68.8z"/>
			<path class="st1" fill="#1e1e1e"
				d="M42.5-86.2c-0.3,0-0.7,0.1-0.9,0.4c-0.2,0.3-0.4,0.6-0.4,0.9c0,0.4,0.1,0.7,0.4,0.9c0.4,0.4,1.3,0.5,1.8,0
				c0.2-0.2,0.4-0.6,0.4-0.9c0-0.3-0.1-0.7-0.4-0.9C43.2-86,42.9-86.2,42.5-86.2z"/>
			<path class="st1" fill="#1e1e1e"
				d="M10.4-94.4c-0.3,0-0.7,0.1-0.9,0.4c-0.2,0.3-0.4,0.6-0.4,0.9s0.1,0.7,0.4,0.9c0.4,0.4,1.4,0.5,1.8,0
				c0.2-0.3,0.4-0.6,0.4-0.9s-0.1-0.7-0.4-0.9C11.1-94.3,10.8-94.4,10.4-94.4z"/>
			<path class="st1" fill="#1e1e1e"
				d="M234.8-108.1c-0.3,0-0.7,0.1-0.9,0.4c-0.3,0.3-0.4,0.6-0.4,0.9c0,0.3,0.1,0.7,0.4,0.9c0.5,0.5,1.3,0.5,1.8,0
				c0.3-0.3,0.4-0.6,0.4-0.9c0-0.3-0.1-0.7-0.4-0.9C235.5-108,235.2-108.1,234.8-108.1z"/>
			<path class="st1" fill="#1e1e1e"
				d="M254.1-109.1c-0.3,0-0.7,0.1-0.9,0.4c-0.2,0.3-0.4,0.6-0.4,0.9c0,0.3,0.1,0.7,0.4,0.9c0.4,0.4,1.3,0.5,1.8,0
				c0.2-0.2,0.4-0.6,0.4-0.9c0-0.3-0.1-0.7-0.4-0.9C254.7-108.9,254.4-109.1,254.1-109.1z"/>
			<path class="st1" fill="#1e1e1e"
				d="M4.9-33c-0.3,0-0.7,0.1-0.9,0.4c-0.2,0.3-0.4,0.6-0.4,0.9S3.7-31,4-30.8c0.4,0.4,1.4,0.5,1.8,0
				c0.2-0.3,0.4-0.6,0.4-0.9s-0.1-0.7-0.4-0.9C5.6-32.9,5.3-33,4.9-33z"/>
			<path class="st1" fill="#1e1e1e"
				d="M59.9-22c-0.3,0-0.7,0.1-0.9,0.4c-0.2,0.3-0.4,0.6-0.4,0.9c0,0.4,0.1,0.7,0.4,0.9c0.4,0.4,1.3,0.5,1.8,0
				c0.2-0.3,0.4-0.6,0.4-0.9s-0.1-0.7-0.4-0.9C60.6-21.9,60.2-22,59.9-22z"/>
			<path class="st1" fill="#1e1e1e"
				d="M13.2-22c-0.3,0-0.7,0.1-0.9,0.4c-0.2,0.3-0.4,0.6-0.4,0.9s0.1,0.7,0.4,0.9c0.5,0.5,1.3,0.5,1.8,0
				c0.3-0.3,0.4-0.6,0.4-0.9s-0.1-0.7-0.4-0.9C13.9-21.9,13.5-22,13.2-22z"/>
			<path class="st1" fill="#1e1e1e"
				d="M46.2-52.3c-0.3,0-0.7,0.1-0.9,0.4c-0.2,0.3-0.4,0.6-0.4,0.9c0,0.3,0.1,0.7,0.4,0.9c0.5,0.5,1.3,0.5,1.8,0
				c0.3-0.3,0.4-0.6,0.4-0.9c0-0.3-0.1-0.7-0.4-0.9C46.8-52.1,46.5-52.3,46.2-52.3z"/>
			<path class="st1" fill="#1e1e1e"
				d="M67.2-70.6c-0.3,0-0.7,0.1-0.9,0.4c-0.2,0.3-0.4,0.6-0.4,0.9s0.1,0.7,0.4,0.9c0.5,0.5,1.3,0.5,1.8,0
				c0.3-0.3,0.4-0.6,0.4-0.9s-0.1-0.7-0.4-0.9C67.9-70.4,67.6-70.6,67.2-70.6z"/>
			<path class="st1" fill="#1e1e1e"
				d="M77.3-135.6c-0.3,0-0.7,0.1-0.9,0.4c-0.2,0.3-0.4,0.6-0.4,0.9c0,0.3,0.1,0.7,0.4,0.9c0.4,0.4,1.3,0.5,1.8,0
				c0.3-0.3,0.4-0.6,0.4-0.9c0-0.3-0.1-0.7-0.4-0.9C78-135.5,77.6-135.6,77.3-135.6z"/>
			<path class="st1" fill="#1e1e1e"
				d="M2.2-162.2c-0.3,0-0.7,0.1-0.9,0.4s-0.4,0.6-0.4,0.9c0,0.4,0.1,0.7,0.4,0.9c0.4,0.4,1.3,0.5,1.8,0
				c0.2-0.2,0.4-0.6,0.4-0.9c0-0.3-0.1-0.7-0.4-0.9C2.9-162,2.5-162.2,2.2-162.2z"/>
			<path class="st1" fill="#1e1e1e"
				d="M248.6-241.9c-0.3,0-0.7,0.1-0.9,0.4c-0.2,0.3-0.4,0.6-0.4,0.9c0,0.4,0.1,0.7,0.4,0.9c0.4,0.4,1.3,0.5,1.8,0
				c0.2-0.2,0.4-0.6,0.4-0.9s-0.1-0.7-0.4-0.9C249.2-241.7,248.9-241.9,248.6-241.9z"/>
			<path class="st1" fill="#1e1e1e"
				d="M218.4-255.6c-0.3,0-0.7,0.1-0.9,0.4c-0.3,0.3-0.4,0.6-0.4,0.9s0.1,0.7,0.4,0.9c0.5,0.5,1.3,0.5,1.8,0
				c0.2-0.2,0.4-0.6,0.4-0.9c0-0.4-0.1-0.7-0.4-0.9C219-255.5,218.7-255.6,218.4-255.6z"/>
			<path class="st1" fill="#1e1e1e"
				d="M147.8-249.2c-0.3,0-0.7,0.1-0.9,0.4s-0.4,0.6-0.4,0.9c0,0.3,0.1,0.7,0.4,0.9c0.5,0.5,1.4,0.5,1.8,0
				c0.2-0.3,0.4-0.6,0.4-0.9c0-0.3-0.1-0.7-0.4-0.9C148.5-249,148.2-249.2,147.8-249.2z"/>
			<path class="st1" fill="#1e1e1e"
				d="M15.9-219.9c-0.3,0-0.7,0.1-0.9,0.4s-0.4,0.6-0.4,0.9s0.1,0.7,0.4,0.9c0.5,0.5,1.3,0.5,1.8,0
				c0.3-0.3,0.4-0.6,0.4-0.9s-0.1-0.7-0.4-0.9C16.6-219.7,16.3-219.9,15.9-219.9z"/>
			<path class="st1" fill="#1e1e1e"
				d="M96.5-218c-0.3,0-0.7,0.1-0.9,0.4c-0.2,0.3-0.4,0.6-0.4,0.9c0,0.3,0.1,0.7,0.4,0.9c0.5,0.5,1.3,0.5,1.8,0
				c0.3-0.3,0.4-0.6,0.4-0.9s-0.1-0.7-0.4-0.9C97.2-217.9,96.9-218,96.5-218z"/>
			<path class="st1" fill="#1e1e1e"
				d="M135.9-177.7c-0.3,0-0.7,0.1-0.9,0.4s-0.4,0.6-0.4,0.9c0,0.4,0.1,0.7,0.4,0.9c0.5,0.5,1.3,0.5,1.8,0
				c0.2-0.3,0.4-0.6,0.4-0.9c0-0.3-0.1-0.7-0.4-0.9C136.6-177.6,136.3-177.7,135.9-177.7z"/>
			<path class="st1" fill="#1e1e1e"
				d="M31.5-147.5c-0.3,0-0.7,0.1-0.9,0.4c-0.2,0.3-0.4,0.6-0.4,0.9c0,0.3,0.1,0.7,0.4,0.9c0.5,0.5,1.3,0.5,1.8,0
				c0.3-0.3,0.4-0.6,0.4-0.9c0-0.3-0.1-0.7-0.4-0.9C32.2-147.4,31.8-147.5,31.5-147.5z"/>
			<path class="st1" fill="#1e1e1e"
				d="M190.9-139.3c-0.3,0-0.7,0.1-0.9,0.4c-0.2,0.2-0.4,0.6-0.4,0.9c0,0.4,0.1,0.7,0.4,0.9c0.4,0.4,1.3,0.5,1.8,0
				c0.2-0.2,0.4-0.6,0.4-0.9s-0.1-0.7-0.4-0.9C191.5-139.1,191.2-139.3,190.9-139.3z"/>
			<path class="st1" fill="#1e1e1e"
				d="M222-168.6c-0.3,0-0.7,0.1-0.9,0.4c-0.2,0.3-0.4,0.6-0.4,0.9c0,0.4,0.1,0.7,0.4,0.9c0.4,0.4,1.3,0.5,1.8,0
				c0.2-0.2,0.4-0.6,0.4-0.9s-0.1-0.7-0.4-0.9C222.7-168.4,222.4-168.6,222-168.6z"/>
			<path class="st1" fill="#1e1e1e"
				d="M187.2-242.8c-0.3,0-0.7,0.1-0.9,0.4c-0.2,0.3-0.4,0.6-0.4,0.9c0,0.3,0.1,0.7,0.4,0.9c0.5,0.5,1.3,0.5,1.8,0
				c0.2-0.3,0.4-0.6,0.4-0.9c0-0.3-0.1-0.7-0.4-0.9C187.9-242.6,187.5-242.8,187.2-242.8z"/>
			<path class="st1" fill="#1e1e1e"
				d="M146-138.4c-0.3,0-0.7,0.1-0.9,0.4s-0.4,0.6-0.4,0.9c0,0.3,0.1,0.7,0.4,0.9c0.6,0.5,1.3,0.5,1.8,0
				c0.3-0.3,0.4-0.6,0.4-0.9c0-0.3-0.1-0.7-0.4-0.9C146.7-138.2,146.3-138.4,146-138.4z"/>
			<path class="st1" fill="#1e1e1e"
				d="M100.2-49.5c-0.3,0-0.7,0.1-0.9,0.4c-0.2,0.3-0.4,0.6-0.4,0.9c0,0.3,0.1,0.7,0.4,0.9c0.5,0.5,1.3,0.5,1.8,0
				c0.3-0.3,0.4-0.6,0.4-0.9c0-0.3-0.1-0.7-0.4-0.9C100.9-49.4,100.5-49.5,100.2-49.5z"/>
			<path class="st1" fill="#1e1e1e"
				d="M71.8-97.1c-0.3,0-0.7,0.1-0.9,0.4c-0.2,0.3-0.4,0.6-0.4,0.9c0,0.3,0.1,0.7,0.4,0.9c0.4,0.4,1.3,0.5,1.8,0
				c0.3-0.3,0.4-0.6,0.4-0.9c0-0.3-0.1-0.7-0.4-0.9C72.5-97,72.1-97.1,71.8-97.1z"/>
			<path class="st1" fill="#1e1e1e"
				d="M42.5-6.5c-0.3,0-0.7,0.1-0.9,0.4c-0.2,0.3-0.4,0.6-0.4,0.9s0.1,0.7,0.4,0.9c0.4,0.4,1.3,0.5,1.8,0
				c0.2-0.3,0.4-0.6,0.4-0.9s-0.1-0.7-0.4-0.9C43.2-6.3,42.8-6.5,42.5-6.5z"/>
			<path class="st1" fill="#1e1e1e"
				d="M201.9-13.8c-0.3,0-0.7,0.1-0.9,0.4c-0.2,0.3-0.4,0.6-0.4,0.9c0,0.4,0.1,0.7,0.4,0.9c0.4,0.4,1.3,0.5,1.8,0
				c0.2-0.2,0.4-0.6,0.4-0.9c0-0.3-0.1-0.7-0.4-0.9C202.5-13.7,202.2-13.8,201.9-13.8z"/>
			<path class="st1" fill="#1e1e1e"
				d="M172.6-255.6c-0.3,0-0.7,0.1-0.9,0.4c-0.2,0.3-0.4,0.6-0.4,0.9s0.1,0.7,0.4,0.9c0.5,0.5,1.3,0.5,1.8,0
				c0.3-0.3,0.4-0.6,0.4-0.9s-0.1-0.7-0.4-0.9C173.2-255.5,172.9-255.6,172.6-255.6z"/>
			<path class="st1" fill="#1e1e1e"
				d="M16.9-147.5c-0.3,0-0.7,0.1-0.9,0.4c-0.2,0.3-0.4,0.6-0.4,0.9c0,0.4,0.1,0.7,0.4,0.9c0.4,0.4,1.3,0.5,1.8,0
				c0.2-0.2,0.4-0.6,0.4-0.9c0-0.3-0.1-0.7-0.4-0.9C17.5-147.4,17.2-147.5,16.9-147.5z"/>
			<path class="st1" fill="#1e1e1e"
				d="M251.3-48.6c-0.3,0-0.7,0.1-0.9,0.4c-0.2,0.3-0.4,0.6-0.4,0.9c0,0.3,0.1,0.7,0.4,0.9c0.5,0.5,1.3,0.5,1.8,0
				c0.2-0.3,0.4-0.6,0.4-0.9c0-0.4-0.1-0.7-0.4-0.9C252-48.5,251.7-48.6,251.3-48.6z"/>
			<path class="st1" fill="#1e1e1e"
				d="M84.6-51.3c-0.3,0-0.7,0.1-0.9,0.4c-0.2,0.3-0.4,0.6-0.4,0.9c0,0.3,0.1,0.7,0.4,0.9c0.5,0.5,1.3,0.5,1.8,0
				c0.3-0.3,0.4-0.6,0.4-0.9c0-0.3-0.1-0.7-0.4-0.9C85.3-51.2,85-51.3,84.6-51.3z"/>
			<path class="st1" fill="#1e1e1e"
				d="M74.6-63.3c-0.3,0-0.7,0.1-0.9,0.4c-0.2,0.3-0.4,0.6-0.4,0.9c0,0.3,0.1,0.7,0.4,0.9c0.5,0.5,1.3,0.5,1.8,0
				c0.2-0.3,0.4-0.6,0.4-0.9c0-0.3-0.1-0.7-0.4-0.9C75.2-63.1,74.9-63.3,74.6-63.3z"/>
			<path class="st1" fill="#1e1e1e"
				d="M53.5-63.3c-0.3,0-0.7,0.1-0.9,0.4c-0.2,0.3-0.4,0.6-0.4,0.9c0,0.4,0.1,0.7,0.4,0.9c0.4,0.4,1.3,0.5,1.8,0
				c0.2-0.2,0.4-0.6,0.4-0.9c0-0.3-0.1-0.7-0.4-0.9C54.2-63.1,53.8-63.3,53.5-63.3z"/>
			<path class="st1" fill="#1e1e1e"
				d="M21.4-43.1c-0.3,0-0.7,0.1-0.9,0.4c-0.2,0.3-0.4,0.6-0.4,0.9c0,0.3,0.1,0.7,0.4,0.9c0.5,0.5,1.3,0.5,1.8,0
				c0.3-0.2,0.4-0.6,0.4-0.9c0-0.3-0.1-0.7-0.4-0.9C22.1-43,21.8-43.1,21.4-43.1z"/>
			<path class="st1" fill="#1e1e1e"
				d="M25.1-10.1c-0.3,0-0.6,0.1-0.9,0.4c-0.3,0.3-0.4,0.6-0.4,0.9s0.1,0.7,0.4,0.9c0.5,0.5,1.3,0.5,1.8,0
				c0.3-0.3,0.4-0.6,0.4-0.9S26.3-9.5,26-9.7C25.8-10,25.4-10.1,25.1-10.1z"/>
			<path class="st1" fill="#1e1e1e"
				d="M36.1-30.3c-0.3,0-0.7,0.1-0.9,0.4c-0.2,0.3-0.4,0.6-0.4,0.9s0.1,0.7,0.4,0.9c0.5,0.5,1.3,0.5,1.8,0
				c0.3-0.3,0.4-0.6,0.4-0.9s-0.1-0.7-0.4-0.9C36.7-30.1,36.4-30.3,36.1-30.3z"/>
			<path class="st1" fill="#1e1e1e"
				d="M51.7-30.3c-0.3,0-0.7,0.1-0.9,0.4c-0.2,0.3-0.4,0.6-0.4,0.9c0,0.4,0.1,0.7,0.4,0.9c0.4,0.4,1.3,0.5,1.8,0
				c0.2-0.2,0.4-0.6,0.4-0.9c0-0.3-0.1-0.7-0.4-0.9C52.3-30.1,52-30.3,51.7-30.3z"/>
			<path class="st1" fill="#1e1e1e"
				d="M93.8-25.7c-0.3,0-0.7,0.1-0.9,0.4c-0.2,0.3-0.4,0.6-0.4,0.9s0.1,0.7,0.4,0.9c0.5,0.5,1.3,0.5,1.8,0
				c0.3-0.3,0.4-0.6,0.4-0.9s-0.1-0.7-0.4-0.9C94.5-25.6,94.1-25.7,93.8-25.7z"/>
			<path class="st1" fill="#1e1e1e"
				d="M135-27.5c-0.3,0-0.7,0.1-0.9,0.4c-0.2,0.3-0.4,0.6-0.4,0.9s0.1,0.7,0.4,0.9c0.5,0.5,1.3,0.5,1.8,0
				c0.2-0.3,0.4-0.6,0.4-0.9s-0.1-0.7-0.4-0.9C135.7-27.4,135.3-27.5,135-27.5z"/>
			<path class="st1" fill="#1e1e1e"
				d="M136.8-15.6c-0.3,0-0.7,0.1-0.9,0.4c-0.2,0.3-0.4,0.6-0.4,0.9c0,0.4,0.1,0.7,0.4,0.9c0.4,0.5,1.3,0.5,1.8,0
				c0.2-0.2,0.4-0.6,0.4-0.9c0-0.3-0.1-0.7-0.4-0.9C137.5-15.5,137.2-15.6,136.8-15.6z"/>
			<path class="st1" fill="#1e1e1e"
				d="M157.9-8.3c-0.3,0-0.7,0.1-0.9,0.4c-0.2,0.3-0.4,0.6-0.4,0.9s0.1,0.7,0.4,0.9c0.5,0.5,1.3,0.5,1.8,0
				c0.2-0.3,0.4-0.6,0.4-0.9s-0.1-0.7-0.4-0.9C158.5-8.2,158.2-8.3,157.9-8.3z"/>
			<path class="st1" fill="#1e1e1e"
				d="M180.8-30.3c-0.3,0-0.7,0.1-0.9,0.4c-0.3,0.3-0.4,0.6-0.4,0.9s0.1,0.7,0.4,0.9c0.5,0.5,1.4,0.5,1.8,0
				c0.2-0.3,0.4-0.6,0.4-0.9s-0.1-0.7-0.4-0.9C181.5-30.1,181.1-30.3,180.8-30.3z"/>
			<path class="st1" fill="#1e1e1e"
				d="M168-33.9c-0.3,0-0.7,0.1-0.9,0.4c-0.2,0.3-0.4,0.6-0.4,0.9c0,0.3,0.1,0.7,0.4,0.9c0.5,0.5,1.3,0.5,1.8,0
				c0.2-0.3,0.4-0.6,0.4-0.9c0-0.3-0.1-0.7-0.4-0.9C168.6-33.8,168.4-33.9,168-33.9z"/>
			<path class="st1" fill="#1e1e1e"
				d="M130.4-40.4c-0.3,0-0.7,0.1-0.9,0.4c-0.2,0.3-0.4,0.6-0.4,0.9c0,0.4,0.1,0.7,0.4,0.9c0.5,0.5,1.3,0.5,1.8,0
				c0.3-0.3,0.4-0.6,0.4-0.9c0-0.3-0.1-0.7-0.4-0.9C131.1-40.2,130.8-40.4,130.4-40.4z"/>
			<path class="st1" fill="#1e1e1e"
				d="M143.3-55c-0.3,0-0.7,0.1-0.9,0.4c-0.2,0.3-0.4,0.6-0.4,0.9c0,0.3,0.1,0.7,0.4,0.9c0.5,0.5,1.3,0.5,1.8,0
				c0.3-0.3,0.4-0.6,0.4-0.9c0-0.3-0.1-0.7-0.4-0.9C143.9-54.9,143.6-55,143.3-55z"/>
			<path class="st1" fill="#1e1e1e"
				d="M90.1-66c-0.3,0-0.7,0.1-0.9,0.4c-0.2,0.3-0.4,0.6-0.4,0.9c0,0.3,0.1,0.7,0.4,0.9c0.5,0.5,1.3,0.5,1.8,0
				c0.3-0.3,0.4-0.6,0.4-0.9c0-0.3-0.1-0.7-0.4-0.9C90.8-65.9,90.5-66,90.1-66z"/>
			<path class="st1" fill="#1e1e1e"
				d="M29.7-99.9c-0.3,0-0.7,0.1-0.9,0.4c-0.2,0.3-0.4,0.6-0.4,0.9c0,0.3,0.1,0.7,0.4,0.9c0.5,0.5,1.3,0.5,1.8,0
				c0.3-0.3,0.4-0.6,0.4-0.9c0-0.3-0.1-0.7-0.4-0.9C30.3-99.7,30-99.9,29.7-99.9z"/>
			<path class="st1" fill="#1e1e1e"
				d="M58.1-116.4c-0.3,0-0.7,0.1-0.9,0.4c-0.2,0.3-0.4,0.6-0.4,0.9c0,0.3,0.1,0.7,0.4,0.9c0.4,0.4,1.3,0.5,1.8,0
				c0.2-0.3,0.4-0.6,0.4-0.9c0-0.3-0.1-0.7-0.4-0.9C58.7-116.2,58.4-116.4,58.1-116.4z"/>
			<path class="st1" fill="#1e1e1e"
				d="M37.9-122.8c-0.3,0-0.7,0.1-0.9,0.4c-0.2,0.3-0.4,0.6-0.4,0.9c0,0.4,0.1,0.7,0.4,0.9c0.4,0.4,1.3,0.5,1.8,0
				c0.2-0.2,0.4-0.6,0.4-0.9c0-0.4-0.1-0.7-0.4-0.9C38.6-122.6,38.3-122.8,37.9-122.8z"/>
			<path class="st1" fill="#1e1e1e"
				d="M18.7-135.6c-0.3,0-0.7,0.1-0.9,0.4c-0.2,0.3-0.4,0.6-0.4,0.9c0,0.3,0.1,0.7,0.4,0.9c0.4,0.4,1.4,0.5,1.8,0
				c0.2-0.3,0.4-0.6,0.4-0.9c0-0.3-0.1-0.7-0.4-0.9C19.3-135.5,19-135.6,18.7-135.6z"/>
			<path class="st1" fill="#1e1e1e"
				d="M11.4-75.2c-0.3,0-0.7,0.1-0.9,0.4c-0.2,0.3-0.4,0.6-0.4,0.9s0.1,0.7,0.4,0.9c0.4,0.4,1.3,0.5,1.8,0
				c0.2-0.3,0.4-0.6,0.4-0.9s-0.1-0.7-0.4-0.9C12-75,11.7-75.2,11.4-75.2z"/>
			<path class="st1" fill="#1e1e1e"
				d="M74.6-112.7c-0.3,0-0.7,0.1-0.9,0.4c-0.2,0.3-0.4,0.6-0.4,0.9c0,0.4,0.1,0.7,0.4,0.9c0.5,0.5,1.3,0.5,1.8,0
				c0.2-0.2,0.4-0.6,0.4-0.9c0-0.3-0.1-0.7-0.4-0.9C75.2-112.6,74.9-112.7,74.6-112.7z"/>
			<path class="st1" fill="#1e1e1e"
				d="M63.6-130.1c-0.3,0-0.7,0.1-0.9,0.4s-0.4,0.6-0.4,0.9s0.1,0.7,0.4,0.9c0.5,0.5,1.3,0.5,1.8,0
				c0.2-0.3,0.4-0.6,0.4-0.9c0-0.3-0.1-0.7-0.4-0.9C64.2-130,63.9-130.1,63.6-130.1z"/>
			<path class="st1" fill="#1e1e1e"
				d="M58.1-142.9c-0.3,0-0.7,0.1-0.9,0.4s-0.4,0.6-0.4,0.9c0,0.4,0.1,0.7,0.4,0.9c0.4,0.4,1.3,0.5,1.8,0
				c0.2-0.2,0.4-0.6,0.4-0.9c0-0.3-0.1-0.7-0.4-0.9C58.7-142.8,58.4-142.9,58.1-142.9z"/>
			<path class="st1" fill="#1e1e1e"
				d="M46.2-151.2c-0.3,0-0.7,0.1-0.9,0.4s-0.4,0.6-0.4,0.9c0,0.4,0.1,0.7,0.4,0.9c0.4,0.4,1.3,0.5,1.8,0
				c0.2-0.2,0.4-0.6,0.4-0.9c0-0.3-0.1-0.7-0.4-0.9C46.8-151,46.5-151.2,46.2-151.2z"/>
			<path class="st1" fill="#1e1e1e"
				d="M46.2-170.4c-0.3,0-0.7,0.1-0.9,0.4s-0.4,0.6-0.4,0.9c0,0.4,0.1,0.7,0.4,0.9c0.4,0.4,1.3,0.5,1.8,0
				c0.2-0.2,0.4-0.6,0.4-0.9c0-0.3-0.1-0.7-0.4-0.9C46.8-170.3,46.5-170.4,46.2-170.4z"/>
			<path class="st1" fill="#1e1e1e"
				d="M20.5-177.7c-0.3,0-0.7,0.1-0.9,0.4c-0.2,0.3-0.4,0.6-0.4,0.9c0,0.3,0.1,0.7,0.4,0.9c0.4,0.4,1.4,0.5,1.8,0
				c0.2-0.3,0.4-0.6,0.4-0.9c0-0.3-0.1-0.7-0.4-0.9C21.2-177.6,20.8-177.7,20.5-177.7z"/>
			<path class="st1" fill="#1e1e1e"
				d="M39.8-199.7c-0.3,0-0.7,0.1-0.9,0.4s-0.4,0.6-0.4,0.9c0,0.3,0.1,0.7,0.4,0.9c0.4,0.4,1.4,0.5,1.8,0
				c0.2-0.3,0.4-0.6,0.4-0.9c0-0.3-0.1-0.7-0.4-0.9C40.4-199.6,40.1-199.7,39.8-199.7z"/>
			<path class="st1" fill="#1e1e1e"
				d="M56.2-214.4c-0.3,0-0.7,0.1-0.9,0.4s-0.4,0.6-0.4,0.9s0.1,0.7,0.4,0.9c0.5,0.5,1.4,0.5,1.8,0
				c0.2-0.3,0.4-0.6,0.4-0.9s-0.1-0.7-0.4-0.9C56.9-214.2,56.6-214.4,56.2-214.4z"/>
			<path class="st1" fill="#1e1e1e"
				d="M21.4-232.7c-0.3,0-0.7,0.1-0.9,0.4c-0.2,0.3-0.4,0.6-0.4,0.9c0,0.3,0.1,0.7,0.4,0.9c0.4,0.4,1.3,0.5,1.8,0
				c0.2-0.2,0.4-0.6,0.4-0.9c0-0.3-0.1-0.7-0.4-0.9C22.1-232.6,21.8-232.7,21.4-232.7z"/>
			<path class="st1" fill="#1e1e1e"
				d="M7.7-227.2c-0.3,0-0.7,0.1-0.9,0.4c-0.2,0.3-0.4,0.6-0.4,0.9c0,0.3,0.1,0.7,0.4,0.9c0.5,0.4,1.3,0.5,1.8,0
				c0.2-0.3,0.4-0.6,0.4-0.9c0-0.3-0.1-0.7-0.4-0.9C8.4-227.1,8-227.2,7.7-227.2z"/>
			<path class="st1" fill="#1e1e1e"
				d="M32.4-249.2c-0.3,0-0.7,0.1-0.9,0.4c-0.2,0.3-0.4,0.6-0.4,0.9c0,0.3,0.1,0.7,0.4,0.9c0.5,0.5,1.3,0.5,1.8,0
				c0.3-0.3,0.4-0.6,0.4-0.9c0-0.3-0.1-0.7-0.4-0.9C33.1-249,32.8-249.2,32.4-249.2z"/>
			<path class="st1" fill="#1e1e1e"
				d="M48.9-254.7c-0.3,0-0.7,0.1-0.9,0.4s-0.4,0.6-0.4,0.9c0,0.3,0.1,0.7,0.4,0.9c0.4,0.4,1.4,0.5,1.8,0
				c0.2-0.3,0.4-0.6,0.4-0.9c0-0.3-0.2-0.7-0.4-0.9S49.2-254.7,48.9-254.7z"/>
			<path class="st1" fill="#1e1e1e"
				d="M78.2-251c-0.3,0-0.7,0.1-0.9,0.4c-0.2,0.3-0.4,0.6-0.4,0.9c0,0.4,0.1,0.7,0.4,0.9c0.4,0.5,1.3,0.5,1.8,0
				c0.2-0.2,0.4-0.6,0.4-0.9c0-0.3-0.1-0.7-0.4-0.9C78.9-250.9,78.6-251,78.2-251z"/>
			<path class="st1" fill="#1e1e1e"
				d="M83.7-240.9c-0.3,0-0.7,0.1-0.9,0.4c-0.2,0.3-0.4,0.6-0.4,0.9s0.1,0.7,0.4,0.9c0.5,0.5,1.3,0.5,1.8,0
				c0.2-0.3,0.4-0.6,0.4-0.9s-0.1-0.7-0.4-0.9C84.4-240.8,84.1-240.9,83.7-240.9z"/>
			<path class="st1" fill="#1e1e1e"
				d="M81-219.9c-0.3,0-0.7,0.1-0.9,0.4c-0.2,0.3-0.4,0.6-0.4,0.9s0.1,0.7,0.4,0.9c0.4,0.4,1.3,0.5,1.8,0
				c0.2-0.3,0.4-0.6,0.4-0.9s-0.1-0.7-0.4-0.9S81.3-219.9,81-219.9z"/>
			<path class="st1" fill="#1e1e1e"
				d="M88.3-210.7c-0.3,0-0.7,0.1-0.9,0.4c-0.2,0.3-0.4,0.6-0.4,0.9c0,0.4,0.1,0.7,0.4,0.9c0.4,0.4,1.3,0.5,1.8,0
				c0.2-0.3,0.4-0.6,0.4-0.9c0-0.3-0.1-0.7-0.4-0.9C89-210.6,88.7-210.7,88.3-210.7z"/>
			<path class="st1" fill="#1e1e1e"
				d="M95.6-175c-0.3,0-0.7,0.1-0.9,0.4c-0.2,0.3-0.4,0.6-0.4,0.9c0,0.3,0.1,0.7,0.4,0.9c0.5,0.5,1.3,0.5,1.8,0
				c0.2-0.3,0.4-0.6,0.4-0.9c0-0.3-0.1-0.7-0.4-0.9C96.3-174.9,96-175,95.6-175z"/>
			<path class="st1" fill="#1e1e1e"
				d="M93.8-159.4c-0.3,0-0.7,0.1-0.9,0.4c-0.2,0.3-0.4,0.6-0.4,0.9c0,0.3,0.1,0.7,0.4,0.9c0.5,0.5,1.3,0.5,1.8,0
				c0.2-0.3,0.4-0.6,0.4-0.9c0-0.3-0.1-0.7-0.4-0.9C94.5-159.3,94.1-159.4,93.8-159.4z"/>
			<path class="st1" fill="#1e1e1e"
				d="M117.6-113.6c-0.3,0-0.7,0.1-0.9,0.4c-0.2,0.3-0.4,0.6-0.4,0.9c0,0.4,0.1,0.7,0.4,0.9c0.4,0.5,1.3,0.5,1.8,0
				c0.2-0.2,0.4-0.6,0.4-0.9c0-0.3-0.1-0.7-0.4-0.9C118.3-113.5,117.9-113.6,117.6-113.6z"/>
			<path class="st1" fill="#1e1e1e"
				d="M124.9-101.7c-0.3,0-0.7,0.1-0.9,0.4c-0.2,0.3-0.4,0.6-0.4,0.9c0,0.3,0.1,0.7,0.4,0.9c0.5,0.5,1.3,0.5,1.8,0
				c0.2-0.3,0.4-0.6,0.4-0.9c0-0.3-0.1-0.7-0.4-0.9C125.6-101.6,125.3-101.7,124.9-101.7z"/>
			<path class="st1" fill="#1e1e1e"
				d="M152.4-94.4c-0.3,0-0.7,0.1-0.9,0.4c-0.2,0.3-0.4,0.6-0.4,0.9s0.1,0.7,0.4,0.9c0.5,0.5,1.4,0.5,1.8,0
				c0.2-0.3,0.4-0.6,0.4-0.9s-0.1-0.7-0.4-0.9C153.1-94.3,152.7-94.4,152.4-94.4z"/>
			<path class="st1" fill="#1e1e1e"
				d="M157-76.1c-0.3,0-0.7,0.1-0.9,0.4c-0.2,0.2-0.4,0.5-0.4,0.9c0,0.3,0.1,0.7,0.4,0.9c0.5,0.5,1.3,0.5,1.8,0
				c0.2-0.3,0.4-0.6,0.4-0.9c0-0.4-0.1-0.7-0.4-0.9C157.7-75.9,157.3-76.1,157-76.1z"/>
			<path class="st1" fill="#1e1e1e"
				d="M133.2-70.6c-0.3,0-0.7,0.1-0.9,0.4c-0.3,0.3-0.4,0.6-0.4,0.9s0.1,0.7,0.4,0.9c0.6,0.6,1.4,0.5,1.8,0
				c0.2-0.3,0.4-0.6,0.4-0.9s-0.1-0.7-0.4-0.9C133.8-70.4,133.5-70.6,133.2-70.6z"/>
			<path class="st1" fill="#1e1e1e"
				d="M101.1-81.6c-0.3,0-0.7,0.1-0.9,0.4c-0.2,0.3-0.4,0.6-0.4,0.9s0.1,0.7,0.4,0.9c0.5,0.5,1.4,0.5,1.8,0
				c0.2-0.3,0.4-0.6,0.4-0.9s-0.1-0.7-0.4-0.9C101.8-81.4,101.5-81.6,101.1-81.6z"/>
			<path class="st1" fill="#1e1e1e"
				d="M190-80.7c-0.4,0-0.7,0.1-0.9,0.4c-0.2,0.2-0.4,0.6-0.4,0.9s0.1,0.7,0.4,0.9c0.5,0.5,1.3,0.5,1.8,0
				c0.3-0.3,0.4-0.6,0.4-0.9s-0.1-0.7-0.4-0.9C190.6-80.5,190.3-80.7,190-80.7z"/>
			<path class="st1" fill="#1e1e1e"
				d="M157.9-65.1c-0.3,0-0.7,0.1-0.9,0.4c-0.2,0.3-0.4,0.6-0.4,0.9c0,0.3,0.1,0.7,0.4,0.9c0.4,0.4,1.3,0.5,1.8,0
				c0.2-0.3,0.4-0.6,0.4-0.9c0-0.3-0.1-0.7-0.4-0.9C158.6-64.9,158.2-65.1,157.9-65.1z"/>
			<path class="st1" fill="#1e1e1e"
				d="M184.5-66c-0.4,0-0.7,0.1-0.9,0.4c-0.2,0.3-0.4,0.6-0.4,0.9c0,0.3,0.1,0.7,0.4,0.9c0.5,0.5,1.3,0.5,1.8,0
				c0.3-0.3,0.4-0.6,0.4-0.9c0-0.3-0.1-0.7-0.4-0.9C185.1-65.9,184.8-66,184.5-66z"/>
			<path class="st1" fill="#1e1e1e"
				d="M217.4-63.3c-0.3,0-0.7,0.1-0.9,0.4c-0.2,0.3-0.4,0.6-0.4,0.9c0,0.4,0.1,0.7,0.4,0.9c0.4,0.4,1.3,0.5,1.8,0
				c0.2-0.2,0.4-0.6,0.4-0.9c0-0.3-0.1-0.7-0.4-0.9C218.1-63.1,217.8-63.3,217.4-63.3z"/>
			<path class="st1" fill="#1e1e1e"
				d="M212.9-51.3c-0.4,0-0.7,0.1-0.9,0.4c-0.2,0.3-0.4,0.6-0.4,0.9c0,0.3,0.1,0.7,0.4,0.9c0.5,0.5,1.3,0.5,1.8,0
				c0.3-0.3,0.4-0.6,0.4-0.9c0-0.3-0.1-0.7-0.4-0.9C213.5-51.2,213.2-51.3,212.9-51.3z"/>
			<path class="st1" fill="#1e1e1e"
				d="M224.8-40.4c-0.3,0-0.7,0.1-0.9,0.4c-0.2,0.3-0.4,0.6-0.4,0.9c0,0.4,0.1,0.7,0.4,0.9c0.4,0.4,1.3,0.5,1.8,0
				c0.2-0.2,0.4-0.5,0.4-0.9c0-0.3-0.1-0.7-0.4-0.9C225.4-40.2,225.1-40.4,224.8-40.4z"/>
			<path class="st1" fill="#1e1e1e"
				d="M214.7-27.5c-0.3,0-0.7,0.1-0.9,0.4c-0.3,0.3-0.4,0.6-0.4,0.9s0.1,0.7,0.4,0.9c0.6,0.6,1.3,0.5,1.8,0
				c0.3-0.3,0.4-0.6,0.4-0.9c0-0.3-0.1-0.7-0.4-0.9C215.4-27.4,215-27.5,214.7-27.5z"/>
			<path class="st1" fill="#1e1e1e"
				d="M219.3-17.5c-0.3,0-0.7,0.1-0.9,0.4c-0.2,0.2-0.4,0.6-0.4,0.9c0,0.4,0.1,0.7,0.4,0.9c0.4,0.4,1.3,0.5,1.8,0
				c0.2-0.2,0.4-0.6,0.4-0.9c0-0.3-0.1-0.7-0.4-0.9C219.9-17.3,219.6-17.5,219.3-17.5z"/>
			<path class="st1" fill="#1e1e1e"
				d="M246.8-22c-0.3,0-0.7,0.1-0.9,0.4c-0.2,0.2-0.4,0.6-0.4,0.9s0.1,0.7,0.4,0.9c0.5,0.4,1.4,0.5,1.8,0
				c0.2-0.3,0.4-0.6,0.4-0.9s-0.1-0.7-0.4-0.9C247.4-21.9,247.1-22,246.8-22z"/>
			<path class="st1" fill="#1e1e1e"
				d="M258.7-31.2c-0.3,0-0.7,0.1-0.9,0.4c-0.2,0.2-0.4,0.6-0.4,0.9s0.1,0.7,0.4,0.9c0.5,0.4,1.3,0.5,1.8,0
				c0.3-0.3,0.4-0.6,0.4-0.9s-0.1-0.7-0.4-0.9C259.3-31.1,259-31.2,258.7-31.2z"/>
			<path class="st1" fill="#1e1e1e"
				d="M240.3-35.8c-0.3,0-0.7,0.1-0.9,0.4c-0.2,0.3-0.4,0.6-0.4,0.9c0,0.4,0.1,0.7,0.4,0.9c0.4,0.4,1.4,0.5,1.8,0
				c0.2-0.3,0.4-0.6,0.4-0.9c0-0.3-0.1-0.7-0.4-0.9C241-35.6,240.7-35.8,240.3-35.8z"/>
			<path class="st1" fill="#1e1e1e"
				d="M220.2-87.1c-0.3,0-0.7,0.1-0.9,0.4c-0.2,0.3-0.4,0.6-0.4,0.9s0.1,0.7,0.4,0.9c0.4,0.5,1.4,0.5,1.8,0
				c0.2-0.3,0.4-0.6,0.4-0.9s-0.1-0.7-0.4-0.9C220.9-86.9,220.5-87.1,220.2-87.1z"/>
			<path class="st1" fill="#1e1e1e"
				d="M202.8-87.1c-0.3,0-0.7,0.1-0.9,0.4c-0.2,0.3-0.4,0.6-0.4,0.9s0.1,0.7,0.4,0.9c0.4,0.4,1.4,0.5,1.8,0
				c0.2-0.3,0.4-0.6,0.4-0.9s-0.1-0.7-0.4-0.9C203.4-86.9,203.1-87.1,202.8-87.1z"/>
			<path class="st1" fill="#1e1e1e"
				d="M202.8-68.8c-0.3,0-0.7,0.1-0.9,0.4c-0.2,0.2-0.4,0.6-0.4,0.9c0,0.4,0.1,0.7,0.4,0.9c0.4,0.4,1.3,0.5,1.8,0
				c0.2-0.2,0.4-0.6,0.4-0.9c0-0.3-0.1-0.7-0.4-0.9C203.4-68.6,203.1-68.8,202.8-68.8z"/>
			<path class="st1" fill="#1e1e1e"
				d="M237.6-94.4c-0.3,0-0.7,0.1-0.9,0.4c-0.2,0.3-0.4,0.6-0.4,0.9c0,0.4,0.1,0.7,0.4,0.9c0.4,0.4,1.3,0.5,1.8,0
				c0.2-0.2,0.4-0.6,0.4-0.9c0-0.3-0.1-0.7-0.4-0.9C238.3-94.3,237.9-94.4,237.6-94.4z"/>
			<path class="st1" fill="#1e1e1e"
				d="M211-112.7c-0.4,0-0.7,0.1-0.9,0.4c-0.2,0.2-0.4,0.6-0.4,0.9c0,0.4,0.1,0.7,0.4,0.9c0.4,0.4,1.3,0.5,1.8,0
				c0.2-0.2,0.4-0.6,0.4-0.9c0-0.3-0.1-0.7-0.4-0.9C211.7-112.6,211.4-112.7,211-112.7z"/>
			<path class="st1" fill="#1e1e1e"
				d="M192.7-120c-0.3,0-0.7,0.1-0.9,0.4c-0.2,0.2-0.4,0.6-0.4,0.9c0,0.4,0.1,0.7,0.4,0.9c0.4,0.4,1.3,0.5,1.8,0
				c0.2-0.2,0.4-0.6,0.4-0.9c0-0.3-0.1-0.7-0.4-0.9C193.4-119.9,193-120,192.7-120z"/>
			<path class="st1" fill="#1e1e1e"
				d="M173.5-123.7c-0.3,0-0.7,0.1-0.9,0.4c-0.2,0.2-0.4,0.6-0.4,0.9c0,0.4,0.1,0.7,0.4,0.9c0.4,0.4,1.3,0.5,1.8,0
				c0.2-0.2,0.4-0.6,0.4-0.9c0-0.3-0.1-0.7-0.4-0.9C174.1-123.6,173.8-123.7,173.5-123.7z"/>
			<path class="st1" fill="#1e1e1e"
				d="M161.6-143.9c-0.3,0-0.7,0.1-0.9,0.4c-0.2,0.2-0.4,0.6-0.4,0.9c0,0.3,0.1,0.7,0.4,0.9c0.5,0.5,1.3,0.5,1.8,0
				c0.2-0.3,0.4-0.6,0.4-0.9c0-0.4-0.1-0.7-0.4-0.9C162.2-143.7,161.9-143.9,161.6-143.9z"/>
			<path class="st1" fill="#1e1e1e"
				d="M124-152.1c-0.3,0-0.7,0.1-0.9,0.4c-0.2,0.3-0.4,0.6-0.4,0.9s0.1,0.7,0.4,0.9c0.5,0.5,1.3,0.5,1.8,0
				c0.2-0.3,0.4-0.6,0.4-0.9s-0.1-0.7-0.4-0.9C124.7-152,124.3-152.1,124-152.1z"/>
			<path class="st1" fill="#1e1e1e"
				d="M148.7-175.9c-0.3,0-0.7,0.1-0.9,0.4s-0.4,0.6-0.4,0.9c0,0.3,0.1,0.7,0.4,0.9c0.5,0.5,1.3,0.5,1.8,0
				c0.3-0.2,0.4-0.6,0.4-0.9c0-0.3-0.1-0.7-0.4-0.9C149.4-175.8,149.1-175.9,148.7-175.9z"/>
			<path class="st1" fill="#1e1e1e"
				d="M167.1-191.5c-0.3,0-0.7,0.1-0.9,0.4s-0.4,0.6-0.4,0.9c0,0.4,0.1,0.7,0.4,0.9c0.4,0.5,1.3,0.5,1.8,0
				c0.2-0.2,0.4-0.6,0.4-0.9c0-0.3-0.1-0.7-0.4-0.9C167.7-191.3,167.4-191.5,167.1-191.5z"/>
			<path class="st1" fill="#1e1e1e"
				d="M169.8-208c-0.3,0-0.7,0.1-0.9,0.4s-0.4,0.6-0.4,0.9s0.1,0.7,0.4,0.9c0.6,0.5,1.3,0.5,1.8,0
				c0.3-0.3,0.4-0.6,0.4-0.9s-0.1-0.7-0.4-0.9C170.5-207.8,170.1-208,169.8-208z"/>
			<path class="st1" fill="#1e1e1e"
				d="M153.3-218c-0.3,0-0.7,0.1-0.9,0.4c-0.3,0.3-0.4,0.6-0.4,0.9c0,0.3,0.1,0.7,0.4,0.9c0.5,0.5,1.3,0.5,1.8,0
				c0.2-0.3,0.4-0.6,0.4-0.9s-0.1-0.7-0.4-0.9C154-217.9,153.7-218,153.3-218z"/>
			<path class="st1" fill="#1e1e1e"
				d="M146-230c-0.3,0-0.7,0.1-0.9,0.4s-0.4,0.6-0.4,0.9c0,0.3,0.1,0.7,0.4,0.9c0.5,0.5,1.4,0.5,1.8,0
				c0.2-0.3,0.4-0.6,0.4-0.9s-0.1-0.7-0.4-0.9C146.7-229.8,146.4-230,146-230z"/>
			<path class="st1" fill="#1e1e1e"
				d="M131.3-230c-0.3,0-0.7,0.1-0.9,0.4s-0.4,0.6-0.4,0.9c0,0.4,0.1,0.7,0.4,0.9c0.4,0.5,1.3,0.5,1.8,0
				c0.2-0.2,0.4-0.6,0.4-0.9s-0.1-0.7-0.4-0.9C132-229.8,131.7-230,131.3-230z"/>
			<path class="st1" fill="#1e1e1e"
				d="M133.2-193.3c-0.3,0-0.7,0.1-0.9,0.4c-0.3,0.3-0.4,0.6-0.4,0.9s0.1,0.7,0.4,0.9c0.5,0.5,1.4,0.5,1.8,0
				c0.2-0.2,0.4-0.5,0.4-0.9c0-0.3-0.1-0.7-0.4-0.9C133.8-193.2,133.5-193.3,133.2-193.3z"/>
			<path class="st1" fill="#1e1e1e"
				d="M109.4-232.7c-0.3,0-0.7,0.1-0.9,0.4c-0.3,0.3-0.4,0.6-0.4,0.9c0,0.4,0.1,0.7,0.4,0.9c0.4,0.4,1.3,0.5,1.8,0
				c0.2-0.2,0.4-0.6,0.4-0.9c0-0.3-0.1-0.7-0.4-0.9C110-232.6,109.7-232.7,109.4-232.7z"/>
			<path class="st1" fill="#1e1e1e"
				d="M114.9-251c-0.3,0-0.7,0.1-0.9,0.4c-0.2,0.3-0.4,0.6-0.4,0.9c0,0.3,0.1,0.7,0.4,0.9c0.5,0.5,1.3,0.5,1.8,0
				c0.2-0.3,0.4-0.6,0.4-0.9c0-0.3-0.1-0.7-0.4-0.9C115.5-250.9,115.2-251,114.9-251z"/>
			<path class="st1" fill="#1e1e1e"
				d="M135-260.2c-0.3,0-0.7,0.1-0.9,0.4c-0.2,0.2-0.4,0.6-0.4,0.9c0,0.4,0.1,0.7,0.4,0.9c0.4,0.4,1.3,0.5,1.8,0
				c0.2-0.2,0.4-0.6,0.4-0.9c0-0.3-0.1-0.7-0.4-0.9C135.7-260,135.3-260.2,135-260.2z"/>
			<path class="st1" fill="#1e1e1e"
				d="M230.3-208.9c-0.3,0-0.7,0.1-0.9,0.4s-0.4,0.6-0.4,0.9c0,0.4,0.1,0.7,0.4,0.9c0.4,0.4,1.3,0.5,1.8,0
				c0.2-0.2,0.4-0.6,0.4-0.9s-0.1-0.7-0.4-0.9C230.9-208.7,230.6-208.9,230.3-208.9z"/>
			<path class="st1" fill="#1e1e1e"
				d="M219.3-186c-0.4,0-0.7,0.1-0.9,0.4c-0.2,0.2-0.4,0.6-0.4,0.9c0,0.3,0.1,0.7,0.4,0.9c0.4,0.5,1.3,0.5,1.8,0
				c0.3-0.3,0.4-0.6,0.4-0.9c0-0.3-0.1-0.7-0.4-0.9C219.9-185.8,219.6-186,219.3-186z"/>
			<path class="st1" fill="#1e1e1e"
				d="M199.1-185.1c-0.3,0-0.7,0.1-0.9,0.4c-0.2,0.3-0.4,0.6-0.4,0.9c0,0.4,0.1,0.7,0.4,0.9c0.5,0.5,1.3,0.5,1.8,0
				c0.3-0.3,0.4-0.6,0.4-0.9s-0.1-0.7-0.4-0.9C199.8-184.9,199.5-185.1,199.1-185.1z"/>
			<path class="st1" fill="#1e1e1e"
				d="M200-153c-0.3,0-0.7,0.1-0.9,0.4c-0.2,0.2-0.4,0.6-0.4,0.9c0,0.3,0.1,0.7,0.4,0.9c0.5,0.5,1.3,0.5,1.8,0
				c0.2-0.3,0.4-0.6,0.4-0.9c0-0.3-0.1-0.7-0.4-0.9C200.7-152.9,200.4-153,200-153z"/>
			<path class="st1" fill="#1e1e1e"
				d="M228.4-154.8c-0.3,0-0.7,0.1-0.9,0.4c-0.2,0.3-0.4,0.6-0.4,0.9s0.1,0.7,0.4,0.9c0.5,0.5,1.3,0.5,1.8,0
				c0.2-0.3,0.4-0.6,0.4-0.9s-0.1-0.7-0.4-0.9C229.1-154.7,228.8-154.8,228.4-154.8z"/>
			<path class="st1" fill="#1e1e1e"
				d="M244.9-174.1c-0.3,0-0.7,0.1-0.9,0.4c-0.3,0.3-0.4,0.6-0.4,0.9s0.1,0.7,0.4,0.9c0.5,0.5,1.3,0.5,1.8,0
				c0.3-0.3,0.4-0.6,0.4-0.9s-0.1-0.7-0.4-0.9C245.6-173.9,245.3-174.1,244.9-174.1z"/>
			<path class="st1" fill="#1e1e1e"
				d="M254.1-198.8c-0.3,0-0.7,0.1-0.9,0.4c-0.3,0.3-0.4,0.6-0.4,0.9s0.1,0.7,0.4,0.9c0.5,0.5,1.3,0.5,1.8,0
				c0.3-0.3,0.4-0.6,0.4-0.9s-0.1-0.7-0.4-0.9C254.7-198.7,254.4-198.8,254.1-198.8z"/>
			<path class="st1" fill="#1e1e1e"
				d="M232.1-226.3c-0.3,0-0.7,0.1-0.9,0.4c-0.3,0.3-0.4,0.6-0.4,0.9s0.1,0.7,0.4,0.9c0.5,0.5,1.3,0.5,1.8,0
				c0.3-0.3,0.4-0.6,0.4-0.9s-0.1-0.7-0.4-0.9C232.8-226.1,232.4-226.3,232.1-226.3z"/>
			<path class="st1" fill="#1e1e1e"
				d="M256.8-223.5c-0.3,0-0.7,0.1-0.9,0.4c-0.2,0.3-0.4,0.6-0.4,0.9c0,0.4,0.1,0.7,0.4,0.9c0.4,0.4,1.3,0.5,1.8,0
				c0.2-0.2,0.4-0.6,0.4-0.9s-0.1-0.7-0.4-0.9C257.5-223.4,257.2-223.5,256.8-223.5z"/>
			<path class="st1" fill="#1e1e1e"
				d="M236.7-240c-0.3,0-0.7,0.1-0.9,0.4s-0.4,0.6-0.4,0.9c0,0.3,0.1,0.7,0.4,0.9c0.4,0.5,1.4,0.5,1.8,0
				c0.2-0.2,0.4-0.6,0.4-0.9c0-0.3-0.1-0.7-0.4-0.9C237.3-239.9,237-240,236.7-240z"/>
			<path class="st1" fill="#1e1e1e"
				d="M240.3-250.1c-0.3,0-0.7,0.1-0.9,0.4c-0.2,0.3-0.4,0.6-0.4,0.9s0.1,0.7,0.4,0.9c0.4,0.5,1.4,0.5,1.8,0
				c0.2-0.3,0.4-0.6,0.4-0.9s-0.1-0.7-0.4-0.9C241-250,240.7-250.1,240.3-250.1z"/>
			<path class="st1" fill="#1e1e1e"
				d="M228.4-257.4c-0.3,0-0.7,0.1-0.9,0.4c-0.2,0.3-0.4,0.6-0.4,0.9c0,0.3,0.1,0.7,0.4,0.9c0.4,0.4,1.3,0.5,1.8,0
				c0.2-0.2,0.4-0.5,0.4-0.9c0-0.3-0.1-0.7-0.4-0.9C229.1-257.3,228.8-257.4,228.4-257.4z"/>
			<path class="st1" fill="#1e1e1e"
				d="M192.7-255.6c-0.4,0-0.7,0.1-0.9,0.4c-0.2,0.3-0.4,0.6-0.4,0.9s0.1,0.7,0.4,0.9c0.5,0.5,1.3,0.5,1.8,0
				c0.3-0.3,0.4-0.6,0.4-0.9s-0.1-0.7-0.4-0.9C193.4-255.5,193.1-255.6,192.7-255.6z"/>
			<path class="st1" fill="#1e1e1e"
				d="M163.4-243.7c-0.4,0-0.7,0.1-0.9,0.4c-0.2,0.2-0.4,0.6-0.4,0.9c0,0.4,0.1,0.7,0.4,0.9c0.4,0.4,1.3,0.5,1.8,0
				c0.2-0.2,0.4-0.6,0.4-0.9c0-0.3-0.1-0.7-0.4-0.9C164.1-243.6,163.7-243.7,163.4-243.7z"/>
			<path class="st1" fill="#1e1e1e"
				d="M103.9-261.1c-0.3,0-0.7,0.1-0.9,0.4c-0.2,0.2-0.4,0.6-0.4,0.9c0,0.4,0.1,0.7,0.4,0.9c0.4,0.5,1.3,0.5,1.8,0
				c0.2-0.2,0.4-0.6,0.4-0.9c0-0.4-0.1-0.7-0.4-0.9C104.5-261,104.2-261.1,103.9-261.1z"/>
			<path class="st1" fill="#1e1e1e"
				d="M10.4-108.1c-0.3,0-0.7,0.1-0.9,0.4c-0.2,0.3-0.4,0.6-0.4,0.9c0,0.3,0.1,0.7,0.4,0.9c0.4,0.4,1.3,0.5,1.8,0
				c0.2-0.3,0.4-0.6,0.4-0.9c0-0.3-0.1-0.7-0.4-0.9C11.1-108,10.8-108.1,10.4-108.1z"/>
			<path class="st1" fill="#1e1e1e"
				d="M48-18.4c-0.3,0-0.7,0.1-0.9,0.4c-0.2,0.2-0.4,0.5-0.4,0.9c0,0.3,0.1,0.7,0.4,0.9c0.5,0.5,1.3,0.5,1.8,0
				c0.3-0.3,0.4-0.6,0.4-0.9c0-0.4-0.1-0.7-0.4-0.9C48.7-18.2,48.3-18.4,48-18.4z"/>
			<path class="st1" fill="#1e1e1e"
				d="M256.8-126.5c-0.3,0-0.7,0.1-0.9,0.4c-0.2,0.3-0.4,0.6-0.4,0.9c0,0.4,0.1,0.7,0.4,0.9c0.4,0.4,1.3,0.5,1.8,0
				c0.2-0.2,0.4-0.6,0.4-0.9c0-0.3-0.1-0.7-0.4-0.9C257.5-126.3,257.2-126.5,256.8-126.5z"/>
			<path class="st1" fill="#1e1e1e"
				d="M260.5-151.2c-0.3,0-0.7,0.1-0.9,0.4c-0.2,0.3-0.4,0.6-0.4,0.9c0,0.3,0.1,0.7,0.4,0.9c0.5,0.5,1.3,0.5,1.8,0
				c0.2-0.3,0.4-0.6,0.4-0.9c0-0.3-0.1-0.7-0.4-0.9C261.2-151,260.8-151.2,260.5-151.2z"/>
			<path class="st1" fill="#1e1e1e"
				d="M3.1-189.7c-0.3,0-0.7,0.1-0.9,0.4s-0.4,0.6-0.4,0.9c0,0.4,0.1,0.7,0.4,0.9c0.4,0.4,1.3,0.5,1.8,0
				c0.2-0.2,0.4-0.6,0.4-0.9c0-0.3-0.1-0.7-0.4-0.9C3.8-189.5,3.4-189.7,3.1-189.7z"/>
			<path class="st1" fill="#1e1e1e"
				d="M263.2-86.2c-0.3,0-0.7,0.1-0.9,0.4c-0.2,0.3-0.4,0.6-0.4,0.9s0.1,0.7,0.4,0.9c0.4,0.4,1.3,0.5,1.8,0
				c0.2-0.3,0.4-0.6,0.4-0.9s-0.1-0.7-0.4-0.9C263.9-86,263.6-86.2,263.2-86.2z"/>
			<path class="st1" fill="#1e1e1e"
				d="M252.2-97.1c-0.3,0-0.7,0.1-0.9,0.4c-0.2,0.3-0.4,0.6-0.4,0.9c0,0.3,0.1,0.7,0.4,0.9c0.4,0.5,1.3,0.5,1.8,0
				c0.2-0.3,0.4-0.6,0.4-0.9c0-0.3-0.1-0.7-0.4-0.9C252.9-97,252.6-97.1,252.2-97.1z"/>
			<path class="st1" fill="#1e1e1e"
				d="M250.4-220.8c-0.3,0-0.7,0.1-0.9,0.4c-0.2,0.3-0.4,0.6-0.4,0.9c0,0.4,0.1,0.7,0.4,0.9c0.4,0.4,1.4,0.5,1.8,0
				c0.2-0.3,0.4-0.6,0.4-0.9s-0.1-0.7-0.4-0.9C251.1-220.7,250.7-220.8,250.4-220.8z"/>
			<path class="st1" fill="#1e1e1e"
				d="M261.4-250.1c-0.3,0-0.7,0.1-0.9,0.4c-0.2,0.3-0.4,0.6-0.4,0.9s0.1,0.7,0.4,0.9c0.4,0.5,1.3,0.5,1.8,0
				c0.2-0.3,0.4-0.6,0.4-0.9s-0.1-0.7-0.4-0.9C262.1-250,261.7-250.1,261.4-250.1z"/>
			<path class="st1" fill="#1e1e1e"
				d="M1.3-211.6c-0.3,0-0.7,0.1-0.9,0.4C0.1-211,0-210.7,0-210.4c0,0.3,0.1,0.7,0.4,0.9c0.4,0.4,1.3,0.5,1.8,0
				c0.2-0.3,0.4-0.6,0.4-0.9s-0.1-0.7-0.4-0.9S1.6-211.6,1.3-211.6z"/>
			<path class="st1" fill="#1e1e1e"
				d="M9.5-261.1c-0.3,0-0.7,0.1-0.9,0.4c-0.2,0.2-0.4,0.6-0.4,0.9s0.1,0.7,0.4,0.9c0.5,0.5,1.3,0.5,1.8,0
				c0.3-0.3,0.4-0.6,0.4-0.9s-0.1-0.7-0.4-0.9C10.2-261,9.9-261.1,9.5-261.1z"/>
			<path class="st1" fill="#1e1e1e"
				d="M256.8-88c-0.3,0-0.7,0.1-0.9,0.4c-0.2,0.3-0.4,0.6-0.4,0.9c0,0.4,0.1,0.7,0.4,0.9c0.4,0.4,1.3,0.5,1.8,0
				c0.2-0.2,0.4-0.6,0.4-0.9c0-0.3-0.1-0.7-0.4-0.9C257.5-87.8,257.2-88,256.8-88z"/>
			<path class="st1" fill="#1e1e1e"
				d="M4-61.4c-0.3,0-0.7,0.1-0.9,0.4c-0.2,0.3-0.4,0.6-0.4,0.9c0,0.3,0.1,0.7,0.4,0.9c0.4,0.4,1.3,0.5,1.8,0
				c0.2-0.3,0.4-0.6,0.4-0.9c0-0.3-0.1-0.7-0.4-0.9C4.7-61.3,4.4-61.4,4-61.4z"/>
			<path class="st1" fill="#1e1e1e"
				d="M65.4-47.9c-0.6,0-1.2,0.3-1.7,0.7c-0.4,0.5-0.7,1.1-0.7,1.7c0,0.6,0.3,1.2,0.7,1.7c0.9,0.9,2.5,0.9,3.4,0
				c0.4-0.4,0.7-1.1,0.7-1.7c0-0.6-0.3-1.2-0.7-1.7C66.6-47.6,66-47.9,65.4-47.9z"/>
			<path class="st1" fill="#1e1e1e"
				d="M106.6-40.5c-0.6,0-1.2,0.3-1.7,0.7c-0.4,0.5-0.7,1.1-0.7,1.7c0,0.6,0.3,1.2,0.7,1.7c0.9,0.9,2.5,0.9,3.4,0
				c0.4-0.4,0.7-1.1,0.7-1.7c0-0.6-0.3-1.2-0.7-1.7C107.8-40.3,107.2-40.5,106.6-40.5z"/>
			<path class="st1" fill="#1e1e1e"
				d="M106.6-13.1c-0.6,0-1.2,0.3-1.7,0.7c-0.4,0.4-0.7,1.1-0.7,1.7c0,0.7,0.3,1.2,0.7,1.7c0.9,0.9,2.5,0.9,3.4,0
				c0.4-0.4,0.7-1.1,0.7-1.7c0-0.6-0.3-1.2-0.7-1.7C107.8-12.8,107.2-13.1,106.6-13.1z"/>
			<path class="st1" fill="#1e1e1e"
				d="M146.9-38.7c-0.6,0-1.2,0.3-1.7,0.7c-0.4,0.5-0.7,1.1-0.7,1.7c0,0.6,0.3,1.2,0.7,1.7c0.9,0.9,2.5,0.9,3.4,0
				c0.4-0.4,0.7-1,0.7-1.7c0-0.6-0.3-1.2-0.7-1.7S147.5-38.7,146.9-38.7z"/>
			<path class="st1" fill="#1e1e1e"
				d="M164.3-44.2c-0.7,0-1.2,0.3-1.7,0.7c-0.4,0.4-0.7,1-0.7,1.6s0.3,1.2,0.7,1.7c0.9,0.9,2.5,0.9,3.4,0
				c0.4-0.4,0.7-1,0.7-1.7s-0.3-1.2-0.7-1.7C165.6-43.9,165-44.2,164.3-44.2z"/>
			<path class="st1" fill="#1e1e1e"
				d="M172.6-84.5c-0.6,0-1.2,0.3-1.7,0.7c-0.4,0.4-0.7,1.1-0.7,1.7s0.3,1.2,0.7,1.7c0.8,0.9,2.5,0.9,3.4,0
				c0.4-0.4,0.7-1.1,0.7-1.7s-0.3-1.2-0.7-1.7C173.8-84.3,173.2-84.5,172.6-84.5z"/>
			<path class="st1" fill="#1e1e1e"
				d="M200-25.9c-0.7,0-1.2,0.3-1.7,0.7c-0.4,0.4-0.7,1.1-0.7,1.7s0.3,1.2,0.7,1.7c0.8,0.9,2.5,0.9,3.4,0
				c0.4-0.4,0.7-1,0.7-1.7c0-0.6-0.3-1.2-0.7-1.7C201.3-25.6,200.7-25.9,200-25.9z"/>
			<path class="st1" fill="#1e1e1e"
				d="M233.9-25c-0.6,0-1.2,0.3-1.7,0.7c-0.4,0.4-0.7,1.1-0.7,1.7s0.3,1.2,0.7,1.7c0.9,0.9,2.5,0.9,3.4,0
				c0.4-0.4,0.7-1.1,0.7-1.7s-0.3-1.2-0.7-1.7C235.2-24.7,234.6-25,233.9-25z"/>
			<path class="st1" fill="#1e1e1e"
				d="M237.6-10.3c-0.6,0-1.2,0.3-1.7,0.7c-0.4,0.5-0.7,1.1-0.7,1.7c0,0.6,0.3,1.2,0.7,1.7c0.9,0.9,2.5,0.9,3.4,0
				c0.4-0.5,0.7-1.1,0.7-1.7c0-0.6-0.2-1.2-0.7-1.6C238.8-10.1,238.2-10.3,237.6-10.3z"/>
			<path class="st1" fill="#1e1e1e"
				d="M254.1-67.1c-0.6,0-1.2,0.3-1.7,0.7c-0.4,0.4-0.7,1.1-0.7,1.7c0,0.6,0.3,1.2,0.7,1.7c0.9,0.9,2.5,0.9,3.4,0
				c0.4-0.4,0.7-1.1,0.7-1.7c0-0.6-0.3-1.2-0.7-1.7C255.3-66.8,254.7-67.1,254.1-67.1z"/>
			<path class="st1" fill="#1e1e1e"
				d="M28.8-173.4c-0.7,0-1.2,0.3-1.7,0.7c-0.4,0.5-0.7,1.1-0.7,1.7c0,0.6,0.3,1.2,0.7,1.7c0.9,0.9,2.5,0.9,3.4,0
				c0.4-0.4,0.7-1.1,0.7-1.7c0-0.6-0.3-1.2-0.7-1.7C30-173.1,29.4-173.4,28.8-173.4z"/>
			<path class="st1" fill="#1e1e1e"
				d="M17.8-209.1c-0.7,0-1.2,0.3-1.7,0.7c-0.4,0.4-0.7,1.1-0.7,1.7c0,0.6,0.3,1.2,0.7,1.7c0.9,0.9,2.5,0.9,3.4,0
				c0.4-0.4,0.7-1.1,0.7-1.7c0-0.6-0.3-1.2-0.7-1.7C19-208.8,18.4-209.1,17.8-209.1z"/>
			<path class="st1" fill="#1e1e1e"
				d="M7.7-246.6c-0.6,0-1.2,0.3-1.7,0.7c-0.4,0.5-0.7,1.1-0.7,1.7c0,0.6,0.3,1.2,0.7,1.7c0.9,0.9,2.5,0.9,3.4,0
				c0.4-0.4,0.7-1.1,0.7-1.7c0-0.6-0.3-1.2-0.7-1.7C8.9-246.4,8.3-246.6,7.7-246.6z"/>
			<path class="st1" fill="#1e1e1e"
				d="M64.5-256.7c-0.6,0-1.2,0.3-1.7,0.7c-0.4,0.5-0.7,1.1-0.7,1.7s0.3,1.2,0.7,1.7c0.9,0.9,2.5,0.9,3.4,0
				c0.4-0.4,0.7-1.1,0.7-1.7c0-0.6-0.3-1.2-0.7-1.7C65.7-256.4,65.1-256.7,64.5-256.7z"/>
			<path class="st1" fill="#1e1e1e"
				d="M70-229.2c-0.6,0-1.2,0.3-1.7,0.7c-0.4,0.4-0.7,1.1-0.7,1.7c0,0.7,0.3,1.2,0.7,1.7c0.8,0.9,2.5,0.9,3.4,0
				c0.4-0.4,0.7-1.1,0.7-1.7s-0.3-1.2-0.7-1.7C71.2-229,70.6-229.2,70-229.2z"/>
			<path class="st1" fill="#1e1e1e"
				d="M76.4-166.9c-0.6,0-1.2,0.3-1.7,0.7c-0.4,0.4-0.7,1-0.7,1.6c0,0.7,0.3,1.2,0.7,1.7c0.8,0.9,2.5,0.9,3.4,0
				c0.4-0.4,0.7-1.1,0.7-1.7s-0.3-1.2-0.7-1.7C77.6-166.7,77-166.9,76.4-166.9z"/>
			<path class="st1" fill="#1e1e1e"
				d="M103.9-188c-0.6,0-1.2,0.3-1.7,0.7c-0.4,0.4-0.7,1.1-0.7,1.7c0,0.6,0.3,1.2,0.7,1.7c0.9,0.9,2.5,0.9,3.4,0
				c0.4-0.4,0.7-1.1,0.7-1.7c0-0.6-0.3-1.2-0.7-1.7C105.1-187.8,104.5-188,103.9-188z"/>
			<path class="st1" fill="#1e1e1e"
				d="M124-221.9c-0.6,0-1.2,0.3-1.7,0.7c-0.4,0.4-0.7,1.1-0.7,1.7c0,0.7,0.3,1.2,0.7,1.7c0.9,0.9,2.5,0.9,3.4,0
				c0.4-0.4,0.7-1,0.7-1.7s-0.3-1.2-0.7-1.7C125.3-221.6,124.6-221.9,124-221.9z"/>
			<path class="st1" fill="#1e1e1e"
				d="M124.9-245.7c-0.7,0-1.2,0.3-1.7,0.7c-0.4,0.4-0.7,1.1-0.7,1.7s0.3,1.2,0.7,1.7c0.9,0.9,2.5,0.9,3.4,0
				c0.4-0.4,0.7-1,0.7-1.7s-0.3-1.2-0.7-1.7C126.2-245.5,125.6-245.7,124.9-245.7z"/>
			<path class="st1" fill="#1e1e1e"
				d="M152.4-202.7c-0.6,0-1.2,0.3-1.7,0.7c-0.4,0.4-0.7,1.1-0.7,1.7s0.3,1.2,0.7,1.7c0.9,0.9,2.5,0.9,3.4,0
				c0.4-0.4,0.7-1.1,0.7-1.7s-0.3-1.2-0.7-1.7C153.7-202.4,153-202.7,152.4-202.7z"/>
			<path class="st1" fill="#1e1e1e"
				d="M190.9-220.1c-0.6,0-1.2,0.3-1.7,0.7c-0.4,0.4-0.7,1.1-0.7,1.7c0,0.6,0.3,1.2,0.7,1.7c0.8,0.9,2.5,0.9,3.4,0
				c0.4-0.4,0.7-1.1,0.7-1.7c0-0.6-0.3-1.2-0.7-1.7C192.1-219.8,191.5-220.1,190.9-220.1z"/>
			<path class="st1" fill="#1e1e1e"
				d="M201-240.2c-0.6,0-1.2,0.3-1.7,0.7c-0.4,0.5-0.7,1.1-0.7,1.7c0,0.7,0.3,1.2,0.7,1.7c0.8,0.9,2.5,0.9,3.4,0
				c0.4-0.4,0.7-1,0.7-1.7c0-0.6-0.3-1.2-0.7-1.7C202.2-240,201.6-240.2,201-240.2z"/>
			<path class="st1" fill="#1e1e1e"
				d="M92-90.9c-0.6,0-1.2,0.3-1.7,0.7c-0.4,0.5-0.7,1.1-0.7,1.7s0.3,1.2,0.7,1.7c0.8,0.9,2.5,0.9,3.4,0
				c0.4-0.4,0.7-1.1,0.7-1.7s-0.3-1.2-0.7-1.7C93.2-90.7,92.6-90.9,92-90.9z"/>
			<path class="st1" fill="#1e1e1e"
				d="M128.6-86.3c-0.7,0-1.2,0.3-1.7,0.7c-0.4,0.4-0.7,1.1-0.7,1.7s0.3,1.2,0.7,1.7c0.9,0.9,2.5,0.9,3.4,0
				c0.4-0.4,0.7-1,0.7-1.7s-0.3-1.2-0.7-1.7C129.8-86.1,129.3-86.3,128.6-86.3z"/>
			<path class="st1" fill="#1e1e1e"
				d="M164.3-109.2c-0.6,0-1.2,0.3-1.7,0.7c-0.4,0.4-0.7,1.1-0.7,1.7c0,0.6,0.3,1.2,0.7,1.7c0.8,0.9,2.5,0.9,3.4,0
				c0.4-0.4,0.7-1,0.7-1.7s-0.3-1.2-0.7-1.7S164.9-109.2,164.3-109.2z"/>
			<path class="st1" fill="#1e1e1e"
				d="M190-158.7c-0.6,0-1.2,0.3-1.7,0.7c-0.4,0.4-0.7,1.1-0.7,1.7c0,0.6,0.3,1.2,0.7,1.7c0.8,0.9,2.5,0.9,3.4,0
				c0.4-0.4,0.7-1,0.7-1.7c0-0.6-0.3-1.2-0.7-1.7C191.2-158.4,190.6-158.7,190-158.7z"/>
			<path class="st1" fill="#1e1e1e"
				d="M244.9-190.8c-0.6,0-1.2,0.3-1.7,0.7c-0.4,0.4-0.7,1.1-0.7,1.7c0,0.7,0.3,1.2,0.7,1.7c0.8,0.8,2.5,0.9,3.3,0
				c0.4-0.4,0.7-1.1,0.7-1.7s-0.3-1.2-0.7-1.7C246.2-190.5,245.5-190.8,244.9-190.8z"/>
			<path class="st1" fill="#1e1e1e"
				d="M172.6-176.1c-0.6,0-1.2,0.3-1.7,0.7c-0.4,0.4-0.7,1.1-0.7,1.7s0.3,1.2,0.7,1.7c0.8,0.9,2.5,0.9,3.4,0
				c0.4-0.4,0.7-1.1,0.7-1.7s-0.3-1.2-0.7-1.7C173.8-175.8,173.2-176.1,172.6-176.1z"/>
			<path class="st1" fill="#1e1e1e"
				d="M135-164.2c-0.6,0-1.2,0.3-1.7,0.7c-0.4,0.5-0.7,1.1-0.7,1.7c0,0.6,0.3,1.2,0.7,1.7c0.9,0.9,2.5,0.9,3.4,0
				c0.4-0.4,0.7-1.1,0.7-1.7c0-0.6-0.3-1.2-0.7-1.7C136.3-163.9,135.6-164.2,135-164.2z"/>
			<path class="st1" fill="#1e1e1e"
				d="M61.7-105.6c-0.6,0-1.2,0.3-1.7,0.7c-0.4,0.4-0.7,1.1-0.7,1.7c0,0.6,0.3,1.2,0.7,1.7c0.9,0.9,2.5,0.9,3.4,0
				c0.4-0.4,0.7-1.1,0.7-1.7c0-0.6-0.3-1.2-0.7-1.7C63-105.3,62.4-105.6,61.7-105.6z"/>
			<path class="st1" fill="#1e1e1e"
				d="M40.7-135.8c-0.6,0-1.2,0.3-1.7,0.7c-0.4,0.4-0.7,1.1-0.7,1.7c0,0.7,0.3,1.2,0.7,1.7c0.9,0.9,2.5,0.9,3.4,0
				c0.4-0.4,0.7-1.1,0.7-1.7s-0.3-1.2-0.7-1.7C41.9-135.5,41.3-135.8,40.7-135.8z"/>
			<path class="st1" fill="#1e1e1e"
				d="M246.8-113.8c-0.6,0-1.2,0.3-1.7,0.7c-0.4,0.5-0.7,1.1-0.7,1.7c0,0.6,0.3,1.2,0.7,1.7c0.9,0.9,2.5,0.9,3.4,0
				c0.4-0.4,0.7-1,0.7-1.7c0-0.6-0.3-1.2-0.7-1.7C248-113.6,247.4-113.8,246.8-113.8z"/>
			<path class="st1" fill="#1e1e1e"
				d="M26-58.9c-0.7,0-1.2,0.3-1.7,0.7c-0.4,0.4-0.7,1-0.7,1.6s0.3,1.2,0.7,1.7c0.9,0.9,2.5,0.9,3.4,0
				c0.4-0.4,0.7-1.1,0.7-1.7c0-0.6-0.3-1.2-0.7-1.7C27.3-58.6,26.7-58.9,26-58.9z"/>
			<path class="st1" fill="#1e1e1e"
				d="M30.6-20.4c-0.6,0-1.2,0.3-1.7,0.7c-0.4,0.4-0.7,1.1-0.7,1.7c0,0.7,0.3,1.2,0.7,1.7c0.9,0.9,2.5,0.9,3.4,0
				c0.4-0.4,0.7-1,0.7-1.7c0-0.6-0.3-1.2-0.7-1.7C31.8-20.1,31.2-20.4,30.6-20.4z"/>
			<path class="st1" fill="#1e1e1e"
				d="M12.3-10.3c-0.6,0-1.2,0.3-1.7,0.7c-0.4,0.5-0.7,1.1-0.7,1.7c0,0.6,0.3,1.2,0.7,1.7c0.9,0.9,2.5,0.9,3.4,0
				c0.4-0.4,0.7-1.1,0.7-1.7c0-0.6-0.3-1.2-0.7-1.7C13.5-10.1,12.9-10.3,12.3-10.3z"/>
			<path class="st1" fill="#1e1e1e"
				d="M243.1-137.6c-0.6,0-1.2,0.3-1.7,0.7c-0.4,0.4-0.7,1.1-0.7,1.7s0.3,1.2,0.7,1.7c0.9,0.9,2.5,0.9,3.4,0
				c0.4-0.4,0.7-1,0.7-1.7c0-0.6-0.3-1.2-0.7-1.7C244.3-137.4,243.8-137.6,243.1-137.6z"/>
			<path class="st1" fill="#1e1e1e"
				d="M160.7-232c-0.6,0-1.2,0.3-1.7,0.7c-0.4,0.5-0.7,1.1-0.7,1.7c0,0.6,0.3,1.2,0.7,1.7c0.8,0.9,2.5,0.9,3.4,0
				c0.4-0.4,0.7-1.1,0.7-1.7c0-0.6-0.3-1.2-0.7-1.7C161.9-231.7,161.3-232,160.7-232z"/>
			<path class="st1" fill="#1e1e1e"
				d="M93.8-257.6c-0.6,0-1.2,0.3-1.7,0.7c-0.4,0.5-0.7,1.1-0.7,1.7c0,0.6,0.3,1.2,0.7,1.7c0.9,0.9,2.5,0.9,3.4,0
				c0.4-0.4,0.7-1.1,0.7-1.7c0-0.6-0.3-1.2-0.7-1.7C95-257.4,94.4-257.6,93.8-257.6z"/>
			<path class="st1" fill="#1e1e1e"
				d="M80.1-154.1c-0.6,0-1.2,0.3-1.7,0.7c-0.4,0.4-0.7,1-0.7,1.7s0.3,1.2,0.7,1.7c0.9,0.9,2.5,0.9,3.4,0
				c0.4-0.4,0.7-1.1,0.7-1.7s-0.3-1.2-0.7-1.7C81.3-153.9,80.7-154.1,80.1-154.1z"/>
			<path class="st1" fill="#1e1e1e"
				d="M87.4-107.4c-0.6,0-1.2,0.3-1.7,0.7c-0.4,0.5-0.7,1.1-0.7,1.7c0,0.6,0.3,1.2,0.7,1.7c0.8,0.9,2.5,0.9,3.4,0
				c0.4-0.4,0.7-1,0.7-1.7c0-0.6-0.3-1.2-0.7-1.7C88.6-107.1,88-107.4,87.4-107.4z"/>
			<path class="st1" fill="#1e1e1e"
				d="M151.5-127.6c-0.6,0-1.2,0.3-1.7,0.7c-0.4,0.4-0.7,1.1-0.7,1.7c0,0.6,0.3,1.2,0.7,1.7c0.9,0.9,2.5,0.9,3.4,0
				c0.4-0.4,0.7-1.1,0.7-1.7c0-0.6-0.3-1.2-0.7-1.7C152.7-127.3,152.1-127.6,151.5-127.6z"/>
			<path class="st1" fill="#1e1e1e"
				d="M246.8-161.4c-0.6,0-1.2,0.3-1.7,0.7c-0.4,0.5-0.7,1.1-0.7,1.7c0,0.6,0.3,1.2,0.7,1.7c0.9,0.9,2.5,0.9,3.4,0
				c0.4-0.4,0.7-1,0.7-1.7c0-0.6-0.3-1.2-0.7-1.7C248-161.2,247.4-161.4,246.8-161.4z"/>
			<path class="st1" fill="#1e1e1e"
				d="M194.5-56.1c-0.6,0-1.2,0.3-1.7,0.7c-0.4,0.4-0.7,1.1-0.7,1.7c0,0.6,0.3,1.2,0.7,1.7c0.9,0.9,2.5,0.9,3.4,0
				c0.4-0.4,0.7-1.1,0.7-1.7c0-0.6-0.3-1.2-0.7-1.7S195.2-56.1,194.5-56.1z"/>
			<path class="st1" fill="#1e1e1e"
				d="M124-59.8c-0.6,0-1.2,0.3-1.7,0.7c-0.4,0.5-0.7,1.1-0.7,1.7c0,0.7,0.3,1.2,0.7,1.7c0.9,0.9,2.5,0.9,3.4,0
				c0.4-0.4,0.7-1,0.7-1.7c0-0.6-0.3-1.2-0.7-1.7C125.3-59.5,124.6-59.8,124-59.8z"/>
			<path class="st1" fill="#1e1e1e"
				d="M46.2-71.7c-0.6,0-1.2,0.3-1.7,0.7c-0.4,0.4-0.7,1.1-0.7,1.7c0,0.6,0.3,1.2,0.7,1.7c0.9,0.9,2.5,0.9,3.4,0
				c0.4-0.4,0.7-1.1,0.7-1.7c0-0.6-0.3-1.2-0.7-1.7C47.4-71.4,46.8-71.7,46.2-71.7z"/>
			<path class="st1" fill="#1e1e1e"
				d="M180.8-17.6c-0.6,0-1.2,0.3-1.7,0.7c-0.4,0.4-0.7,1.1-0.7,1.7s0.3,1.2,0.7,1.7c0.9,0.9,2.5,0.9,3.4,0
				c0.4-0.4,0.7-1.1,0.7-1.7s-0.3-1.2-0.7-1.7S181.4-17.6,180.8-17.6z"/>
			<path class="st1" fill="#1e1e1e"
				d="M215.6-77.2c-0.6,0-1.2,0.3-1.7,0.7c-0.4,0.4-0.7,1.1-0.7,1.7s0.3,1.2,0.7,1.7c0.9,0.9,2.5,0.9,3.4,0
				c0.4-0.4,0.7-1,0.7-1.7c0-0.6-0.3-1.2-0.7-1.7C216.9-76.9,216.2-77.2,215.6-77.2z"/>
			<path class="st1" fill="#1e1e1e"
				d="M246.8-210.9c-0.6,0-1.2,0.3-1.7,0.7c-0.4,0.5-0.7,1.1-0.7,1.7c0,0.6,0.3,1.2,0.7,1.7c0.9,0.9,2.5,0.9,3.4,0
				c0.4-0.4,0.7-1,0.7-1.7c0-0.6-0.3-1.2-0.7-1.7C248-210.6,247.4-210.9,246.8-210.9z"/>
			<path class="st1" fill="#1e1e1e"
				d="M18.7-256.7c-0.7,0-1.2,0.3-1.7,0.7c-0.4,0.4-0.7,1.1-0.7,1.7s0.3,1.2,0.7,1.7c0.9,0.9,2.5,0.9,3.4,0
				c0.4-0.4,0.7-1.1,0.7-1.7c0-0.6-0.3-1.2-0.7-1.7C19.9-256.4,19.3-256.7,18.7-256.7z"/>
			<path class="st1" fill="#1e1e1e"
				d="M9.5-49.7c-0.7,0-1.2,0.3-1.7,0.7c-0.4,0.4-0.7,1-0.7,1.6s0.3,1.2,0.7,1.7c0.9,0.9,2.5,0.9,3.4,0
				c0.4-0.4,0.7-1.1,0.7-1.7c0-0.6-0.3-1.2-0.7-1.7C10.8-49.4,10.2-49.7,9.5-49.7z"/>
			<path class="st1" fill="#1e1e1e"
				d="M59.9-13.1c-0.6,0-1.2,0.3-1.7,0.7c-0.4,0.4-0.7,1.1-0.7,1.7c0,0.6,0.3,1.2,0.7,1.7c0.9,0.9,2.5,0.9,3.4,0
				c0.4-0.4,0.7-1.1,0.7-1.7c0-0.6-0.3-1.2-0.7-1.7C61.1-12.8,60.5-13.1,59.9-13.1z"/>
			<path class="st1" fill="#1e1e1e"
				d="M147.8-17.6c-0.6,0-1.2,0.3-1.7,0.7c-0.4,0.4-0.7,1.1-0.7,1.7s0.3,1.2,0.7,1.7c0.9,0.9,2.5,0.9,3.4,0
				c0.4-0.4,0.7-1,0.7-1.7c0-0.6-0.3-1.2-0.7-1.7S148.5-17.6,147.8-17.6z"/>
			<path class="st1" fill="#1e1e1e"
				d="M9.5-118.4c-0.7,0-1.2,0.3-1.7,0.7c-0.4,0.4-0.7,1.1-0.7,1.7c0,0.6,0.3,1.2,0.7,1.7c0.9,0.9,2.5,0.9,3.4,0
				c0.4-0.4,0.7-1.1,0.7-1.7c0-0.6-0.3-1.2-0.7-1.7C10.8-118.1,10.1-118.4,9.5-118.4z"/>
			<path class="st1" fill="#1e1e1e"
				d="M26.9-92.8c-0.7,0-1.2,0.3-1.7,0.7c-0.4,0.4-0.7,1.1-0.7,1.7s0.3,1.2,0.7,1.7c0.9,0.9,2.5,0.9,3.4,0
				c0.4-0.4,0.7-1,0.7-1.7c0-0.6-0.3-1.2-0.7-1.7C28.2-92.5,27.6-92.8,26.9-92.8z"/>
			<path class="st1" fill="#1e1e1e"
				d="M14.1-172.4c-0.6,0-1.2,0.3-1.7,0.7c-0.4,0.5-0.7,1.1-0.7,1.7c0,0.6,0.3,1.2,0.7,1.7c0.8,0.9,2.5,0.9,3.4,0
				c0.4-0.4,0.7-1.1,0.7-1.7c0-0.6-0.3-1.2-0.7-1.7C15.4-172.2,14.8-172.4,14.1-172.4z"/>
			<path class="st1" fill="#1e1e1e"
				d="M39.8-186.2c-0.6,0-1.2,0.3-1.7,0.7c-0.4,0.5-0.7,1.1-0.7,1.7c0,0.7,0.3,1.2,0.7,1.7c0.9,0.9,2.5,0.9,3.4,0
				c0.4-0.4,0.7-1.1,0.7-1.7c0-0.6-0.3-1.2-0.7-1.7C41-185.9,40.4-186.2,39.8-186.2z"/>
			<path class="st1" fill="#1e1e1e"
				d="M36.1-220.1c-0.7,0-1.2,0.3-1.7,0.7c-0.4,0.4-0.7,1.1-0.7,1.7c0,0.6,0.3,1.2,0.7,1.7c0.9,0.9,2.5,0.9,3.4,0
				c0.4-0.4,0.7-1.1,0.7-1.7c0-0.6-0.3-1.2-0.7-1.7C37.3-219.8,36.7-220.1,36.1-220.1z"/>
			<path class="st1" fill="#1e1e1e"
				d="M48.9-242c-0.6,0-1.2,0.3-1.7,0.7c-0.4,0.5-0.7,1.1-0.7,1.7c0,0.7,0.3,1.2,0.7,1.7c0.9,0.9,2.5,0.9,3.4,0
				c0.4-0.4,0.7-1.1,0.7-1.7c0-0.6-0.3-1.2-0.7-1.7S49.5-242,48.9-242z"/>
			<path class="st1" fill="#1e1e1e"
				d="M80.1-196.3c-0.6,0-1.2,0.3-1.7,0.7c-0.4,0.4-0.7,1-0.7,1.7s0.3,1.3,0.7,1.7c0.8,0.9,2.5,0.9,3.3,0
				c0.4-0.4,0.7-1.1,0.7-1.7s-0.3-1.2-0.7-1.7C81.3-196,80.7-196.3,80.1-196.3z"/>
			<path class="st1" fill="#1e1e1e"
				d="M113.9-138.5c-0.6,0-1.2,0.3-1.7,0.7c-0.4,0.5-0.7,1.1-0.7,1.7c0,0.6,0.3,1.2,0.7,1.7c0.9,0.9,2.5,0.9,3.4,0
				c0.4-0.4,0.7-1.1,0.7-1.7c0-0.6-0.3-1.2-0.7-1.7C115.2-138.3,114.6-138.5,113.9-138.5z"/>
			<path class="st1" fill="#1e1e1e"
				d="M94.7-125.7c-0.6,0-1.2,0.3-1.7,0.7c-0.4,0.4-0.7,1.1-0.7,1.7c0,0.6,0.3,1.2,0.7,1.7c0.9,0.9,2.5,0.9,3.4,0
				c0.4-0.4,0.7-1.1,0.7-1.7c0-0.6-0.3-1.2-0.7-1.7C96-125.5,95.3-125.7,94.7-125.7z"/>
			<path class="st1" fill="#1e1e1e"
				d="M135.9-105.6c-0.6,0-1.2,0.3-1.7,0.7c-0.4,0.5-0.7,1.1-0.7,1.7c0,0.6,0.3,1.2,0.7,1.7c0.9,0.9,2.5,0.9,3.4,0
				c0.4-0.4,0.7-1.1,0.7-1.7c0-0.6-0.3-1.2-0.7-1.7C137.2-105.3,136.5-105.6,135.9-105.6z"/>
			<path class="st1" fill="#1e1e1e"
				d="M225.7-61.6c-0.6,0-1.2,0.3-1.7,0.7c-0.4,0.5-0.7,1.1-0.7,1.7c0,0.6,0.3,1.2,0.7,1.7c0.9,0.9,2.5,0.9,3.4,0
				c0.4-0.4,0.7-1,0.7-1.7c0-0.6-0.3-1.2-0.7-1.7C226.9-61.4,226.3-61.6,225.7-61.6z"/>
			<path class="st1" fill="#1e1e1e"
				d="M223.9-100.1c-0.7,0-1.2,0.3-1.7,0.7c-0.4,0.5-0.7,1.1-0.7,1.7c0,0.6,0.3,1.2,0.7,1.7c0.9,0.9,2.5,0.9,3.4,0
				c0.4-0.4,0.7-1.1,0.7-1.7c0-0.6-0.3-1.2-0.7-1.7C225.1-99.8,224.5-100.1,223.9-100.1z"/>
			<path class="st1" fill="#1e1e1e"
				d="M214.7-210c-0.6,0-1.2,0.3-1.7,0.7c-0.4,0.5-0.7,1.1-0.7,1.7c0,0.6,0.3,1.2,0.7,1.7c0.9,0.9,2.5,0.9,3.4,0
				c0.4-0.4,0.7-1.1,0.7-1.7c0-0.6-0.3-1.2-0.7-1.7C215.9-209.7,215.3-210,214.7-210z"/>
			<path class="st1" fill="#1e1e1e"
				d="M216.5-163.3c-0.7,0-1.2,0.3-1.7,0.7c-0.4,0.4-0.7,1.1-0.7,1.7s0.3,1.2,0.7,1.7c0.9,0.9,2.5,0.9,3.4,0
				c0.4-0.4,0.7-1.1,0.7-1.7s-0.3-1.2-0.7-1.7C217.8-163,217.2-163.3,216.5-163.3z"/>
			<path class="st1" fill="#1e1e1e"
				d="M203.7-131.2c-0.6,0-1.2,0.3-1.7,0.7c-0.4,0.5-0.7,1.1-0.7,1.7s0.3,1.2,0.7,1.7c0.9,0.9,2.5,0.9,3.4,0
				c0.4-0.4,0.7-1.1,0.7-1.7c0-0.6-0.3-1.2-0.7-1.7S204.3-131.2,203.7-131.2z"/>
			<path class="st1" fill="#1e1e1e"
				d="M253.2-259.5c-0.6,0-1.2,0.3-1.7,0.7c-0.4,0.4-0.7,1.1-0.7,1.7c0,0.6,0.3,1.2,0.7,1.7c0.8,0.8,2.5,0.9,3.4,0
				c0.4-0.4,0.7-1.1,0.7-1.7c0-0.6-0.3-1.2-0.7-1.7C254.4-259.2,253.8-259.5,253.2-259.5z"/>
			<path class="st1" fill="#1e1e1e"
				d="M222-242c-0.6,0-1.2,0.3-1.7,0.7c-0.4,0.4-0.7,1.1-0.7,1.7c0,0.6,0.3,1.2,0.7,1.7c0.9,0.9,2.5,0.9,3.4,0
				c0.4-0.4,0.7-1,0.7-1.7c0-0.6-0.3-1.2-0.7-1.7S222.6-242,222-242z"/>
			<path class="st1" fill="#1e1e1e"
				d="M162.5-262.2c-0.6,0-1.2,0.3-1.7,0.7c-0.4,0.4-0.7,1.1-0.7,1.7s0.3,1.2,0.7,1.7c0.9,0.9,2.5,0.9,3.4,0
				c0.4-0.4,0.7-1.1,0.7-1.7s-0.3-1.2-0.7-1.7C163.7-261.9,163.1-262.2,162.5-262.2z"/>
			<path class="st1" fill="#1e1e1e"
				d="M89.2-4.8c-0.6,0-1.2,0.3-1.7,0.7c-0.4,0.4-0.7,1.1-0.7,1.7c0,0.7,0.3,1.2,0.7,1.7c0.8,0.9,2.5,0.9,3.4,0
				c0.4-0.4,0.7-1.1,0.7-1.7s-0.3-1.2-0.7-1.7C90.5-4.6,89.9-4.8,89.2-4.8z"/>
		</g>
	</g>
</pattern>
<rect class="st0" width="610.7" height="610.7"/>
<circle class="st2" cx="305.4" cy="305.4" r="162"/>
<g>
	<path d="M277.3,212.1c8.3-12.6,16.3-22.9,24-30.9s15.1-13.8,22.3-17.5c7-3.6,14.7-5.5,22.6-5.5c8.8,0,15.4,2.6,19.6,7.9
		c4.2,5.3,6.3,12.4,6.3,21.4c-0.2,5.7-1.1,11.3-2.8,16.8c-0.5,1.9-17,47.5-31.4,87.1l18,18l33.1-90.6c0,0,0.7-1.7,1.1-3.1
		c3.8-12.3,3.8-25.5,0.1-37.9c-1.7-5.5-4.4-10.7-8.2-15.1c-3.7-4.2-8.3-7.6-13.4-9.7c-5.9-2.4-12.2-3.6-18.5-3.4
		c-8.1-0.1-16.1,1.6-23.6,4.7c-7.9,3.5-15.2,8.4-21.5,14.3c-7.8,7.3-14.9,15.4-21.1,24.1c-7.1,9.7-14.5,21.2-22.3,34.3l53.3-146.1
		l-18.8-18.8l0,0L195.2,338.4l18.6,18.6h0.1l36.2-98.9C259.9,240.1,268.9,224.8,277.3,212.1z" fill="#1e1e1e"/>
	<path d="M411,447.6l-8.6,15.2c-6.6,12-14.1,23.6-22.3,34.6c-6.5,8.8-14,17-22.3,24.2c-6.8,6-14.5,10.7-22.8,14.2
		c-7.6,3.1-15.6,4.6-23.8,4.6c-8.4,0-14.6-2.3-18.7-6.8s-6.2-10.6-6.2-18.2c0-3.7,0.4-7.4,1.1-11c0.7-4,1.6-8.2,2.8-12.5
		s2.5-8.8,4-13.3s3-8.9,4.5-13.2l39.6-108.8h52v-0.1l-6.5-6.5h-43l11.5-31.5l-18-18c-9.9,27.2-18,49.5-18,49.5h-48.2l6.6,6.6H314
		l-39.7,108.8c-2.6,7-4.6,14.2-6.1,21.5c-1.3,6.2-1.9,12.5-2,18.8c-0.1,6,0.9,12,2.8,17.7c1.7,5,4.4,9.6,7.9,13.5
		c3.6,3.8,8.1,6.8,13,8.7c5.7,2.1,11.7,3.2,17.8,3.1c8.7,0,17.3-1.4,25.5-4.3c8.8-3.2,17.1-8,24.3-14c8-6.5,16.1-15,24.2-25.5
		c9.3-12.3,17.8-25.3,25.3-38.9l8.6-15.2L411,447.6z" fill="#1e1e1e"/>
</g>
</svg>