<svg width="145" height="43" viewBox="0 0 145 43" fill="none" xmlns="http://www.w3.org/2000/svg">
<g clip-path="url(#clip0_217_944)">
<path d="M53.8911 23.0974C52.2681 23.0974 50.7927 22.8036 49.391 22.2161C47.9893 21.6285 46.7721 20.784 45.7024 19.7191C44.6327 18.6542 43.8212 17.4424 43.231 16.047C42.6408 14.6516 42.3457 13.1461 42.3457 11.5303C42.3457 9.91463 42.6408 8.4458 43.231 7.05041C43.8212 5.65502 44.6327 4.44323 45.6655 3.37833C46.6983 2.31343 47.9155 1.50557 49.3172 0.918041C50.7189 0.330509 52.1943 0.0367432 53.8173 0.0367432C55.4403 0.0367432 56.9158 0.330509 58.3175 0.918041C59.7191 1.50557 60.9364 2.31343 61.9692 3.37833C63.0389 4.44323 63.8504 5.65502 64.4406 7.05041C65.0308 8.4458 65.3259 9.95135 65.3259 11.5671C65.3259 13.1828 65.0308 14.6883 64.4406 16.0837C63.8504 17.4791 63.0389 18.6909 62.0061 19.7558C60.9733 20.8207 59.756 21.6285 58.3543 22.2161C56.9527 22.7669 55.4772 23.0974 53.8911 23.0974ZM53.8173 19.5722C55.3297 19.5722 56.6945 19.2417 57.8379 18.544C58.9814 17.8463 59.9036 16.9283 60.5306 15.7165C61.1946 14.5047 61.5266 13.1093 61.5266 11.5303C61.5266 10.3553 61.3421 9.29037 60.9733 8.29891C60.6044 7.34417 60.0511 6.4996 59.3872 5.76518C58.6863 5.03077 57.8748 4.51667 56.9527 4.11275C56.0305 3.74554 54.9977 3.52521 53.8542 3.52521C52.3419 3.52521 51.014 3.8557 49.8705 4.5534C48.727 5.21437 47.8049 6.16911 47.1778 7.34417C46.5139 8.55596 46.1819 9.91463 46.1819 11.5303C46.1819 12.7054 46.3663 13.807 46.7352 14.7985C47.104 15.7899 47.6204 16.6345 48.3213 17.3322C49.0221 18.0299 49.7967 18.5807 50.7558 18.9847C51.6779 19.3519 52.7107 19.5722 53.8173 19.5722Z" fill="#1E1E1E"/>
<path d="M99.8511 13.8437L96.3838 16.4142L94.3551 14.9086L95.9412 13.7335L93.3222 7.12381L91.146 12.5218L88.2319 10.3552L92.0681 1.17505H94.6133L99.8511 13.8437Z" fill="#1E1E1E"/>
<path d="M103.835 23.6114H99.8513L89.7076 16.0836L88.4166 19.3151L90.2609 17.9564L92.2896 19.462L86.6829 23.6114H82.7729L87.7526 11.5303L98.1176 19.2416L97.343 17.3322L100.331 15.0922L103.835 23.6114Z" fill="#1E1E1E"/>
<path d="M16.3777 16.6345L5.56998 1.17505H1.88135V23.6114H5.56998V8.11527L16.3777 23.6114H20.0663V1.17505H16.3777V16.6345Z" fill="#1E1E1E"/>
<path d="M28.6608 13.7703H39.0258V10.5388H28.6608V4.51664H39.9849V1.17505H24.9722V23.6114H40.1324V20.2331H28.6608V13.7703Z" fill="#1E1E1E"/>
<path d="M84.3223 4.51664V1.17505H65.916V4.51664H73.2933V23.6114H76.9819V4.51664H84.3223Z" fill="#1E1E1E"/>
<path d="M124.934 1.17505H120.212L110.511 11.3467V1.17505H106.786V23.6114H110.511V12.485L120.434 23.6114H125.266L114.606 11.8608L124.934 1.17505Z" fill="#1E1E1E"/>
<path d="M141.311 1.17505V15.0922C141.311 16.1571 141.09 17.1119 140.647 17.883C140.205 18.6908 139.578 19.3151 138.803 19.7557C138.028 20.1964 137.143 20.4167 136.147 20.4167C135.151 20.4167 134.266 20.1964 133.491 19.7557C132.68 19.3151 132.053 18.6908 131.61 17.883C131.131 17.0751 130.909 16.1204 130.909 15.0555V1.17505H127.221V15.0922C127.221 16.7814 127.626 18.2869 128.401 19.6456C129.176 20.9675 130.245 22.0324 131.61 22.8036C132.975 23.5747 134.487 23.9419 136.184 23.9419C137.918 23.9419 139.43 23.5747 140.758 22.8036C142.086 22.0324 143.156 21.0043 143.93 19.6456C144.705 18.3236 145.074 16.8181 145.074 15.1289V1.17505H141.311Z" fill="#1E1E1E"/>
<path d="M4.86899 39.5482C4.86899 40.0623 4.75833 40.503 4.5739 40.8702C4.38947 41.2374 4.13126 41.4944 3.79929 41.6413C3.46731 41.7882 3.13533 41.8983 2.72959 41.8983C2.28695 41.8983 1.91809 41.8249 1.623 41.6413C1.29102 41.4944 1.03282 41.2374 0.811498 40.9069L0 41.678C0.331977 42.0819 0.737726 42.4124 1.18036 42.6695C1.65988 42.8898 2.17629 43.0367 2.80336 43.0367C3.39354 43.0367 3.94683 42.8898 4.42635 42.6328C4.90588 42.3757 5.31163 41.9718 5.60672 41.4577C5.90181 40.9436 6.04935 40.3194 6.04935 39.5849V31.947H4.86899V39.5482Z" fill="#1E1E1E"/>
<path d="M9.88566 37.7856H15.4555V36.7574H9.88566V33.0119H15.8612V31.947H9.88566H9.47991H8.74219V42.8531H9.47991H9.88566H15.935V41.7882H9.88566V37.7856Z" fill="#1E1E1E"/>
<path d="M27.7384 40.76L24.9719 31.947H24.0866L21.3201 40.76L18.5168 31.947H17.3364L20.8775 42.8531H21.7259L24.5293 34.0034L27.2957 42.8531H28.181L31.7221 31.947H30.5417L27.7384 40.76Z" fill="#1E1E1E"/>
<path d="M34.8945 37.7856H40.4643V36.7574H34.8945V33.0119H40.87V31.947H34.8945H34.4887H33.751V42.8531H34.4887H34.8945H40.9438V41.7882H34.8945V37.7856Z" fill="#1E1E1E"/>
<path d="M44.3005 31.947H43.1201V42.8531H43.8947H44.3005H49.9441V41.7882H44.3005V31.947Z" fill="#1E1E1E"/>
<path d="M57.7269 37.602C58.2433 37.345 58.6122 37.0145 58.9073 36.5371C59.2024 36.0597 59.313 35.5457 59.313 34.9581C59.313 34.3706 59.1655 33.8565 58.9073 33.4159C58.6491 32.9752 58.2433 32.608 57.7269 32.3509C57.2105 32.0939 56.6203 31.947 55.8826 31.947H53.1161H52.7104H51.9727V42.8898H53.153V38.0059H54.6285L58.6122 42.8898H60.1245L56.067 38.0059C56.6941 37.9325 57.2843 37.8223 57.7269 37.602ZM53.1161 32.9385H55.8826C56.6203 32.9385 57.1736 33.1221 57.5425 33.4893C57.9114 33.8565 58.1327 34.3339 58.1327 34.9581C58.1327 35.5824 57.9482 36.0597 57.5425 36.427C57.1736 36.7942 56.6203 36.9778 55.8826 36.9778H53.1161V32.9385Z" fill="#1E1E1E"/>
<path d="M69.6411 31.947H68.3501L64.9565 36.9043L61.6368 31.947H60.272L64.3664 38.0059V42.8531H65.5467V37.9325L69.6411 31.947Z" fill="#1E1E1E"/>
</g>
<defs>
<clipPath id="clip0_217_944">
<rect width="145" height="43" fill="white"/>
</clipPath>
</defs>
</svg>
