<svg width="454" height="77" viewBox="0 0 454 77" fill="none" xmlns="http://www.w3.org/2000/svg">
<path d="M164.825 73.4114C159.682 73.4114 155.006 72.4762 150.564 70.6058C146.122 68.7355 142.264 66.0469 138.874 62.6568C135.484 59.2668 132.912 55.4092 131.042 50.9671C129.171 46.525 128.236 41.7323 128.236 36.5888C128.236 31.4453 129.171 26.7694 131.042 22.3273C132.912 17.8853 135.484 14.0276 138.757 10.6376C142.03 7.24762 145.888 4.67588 150.33 2.80553C154.772 0.935177 159.448 0 164.591 0C169.735 0 174.411 0.935177 178.853 2.80553C183.295 4.67588 187.152 7.24762 190.426 10.6376C193.816 14.0276 196.387 17.8853 198.258 22.3273C200.128 26.7694 201.063 31.5622 201.063 36.7057C201.063 41.8492 200.128 46.6419 198.258 51.084C196.387 55.5261 193.816 59.3837 190.542 62.7737C187.269 66.1637 183.412 68.7355 178.97 70.6058C174.528 72.3593 169.852 73.4114 164.825 73.4114ZM164.591 62.1892C169.384 62.1892 173.709 61.1372 177.333 58.9161C180.957 56.6951 183.879 53.7727 185.867 49.9151C187.971 46.0575 189.023 41.6154 189.023 36.5888C189.023 32.8481 188.438 29.4581 187.269 26.3018C186.1 23.2625 184.347 20.5739 182.243 18.2359C180.022 15.898 177.45 14.2614 174.528 12.9756C171.605 11.8066 168.332 11.1052 164.708 11.1052C159.915 11.1052 155.707 12.1573 152.083 14.3783C148.46 16.4825 145.537 19.5218 143.55 23.2625C141.446 27.1201 140.394 31.4453 140.394 36.5888C140.394 40.3295 140.978 43.8364 142.147 46.9926C143.316 50.1488 144.953 52.8375 147.174 55.0585C149.395 57.2796 151.85 59.033 154.889 60.3189C157.811 61.4879 161.084 62.1892 164.591 62.1892Z" fill="#1E1E1E"/>
<path d="M310.478 43.9533L299.49 52.1361L293.061 47.3433L298.087 43.6026L289.788 22.5611L282.891 39.745L273.656 32.8481L285.813 3.62381H293.879L310.478 43.9533Z" fill="#1E1E1E"/>
<path d="M323.103 75.0479H310.478L278.332 51.084L274.24 61.371L280.085 57.0458L286.514 61.8386L268.746 75.0479H256.355L272.136 36.5888L304.984 61.1372L302.529 55.0585L311.998 47.9278L323.103 75.0479Z" fill="#1E1E1E"/>
<path d="M45.9406 52.8375L11.6897 3.62381H0V75.0479H11.6897V25.7174L45.9406 75.0479H57.6303V3.62381H45.9406V52.8375Z" fill="#1E1E1E"/>
<path d="M84.8674 43.7195H117.716V33.4326H84.8674V14.2614H120.755V3.62381H73.1777V75.0479H121.222V64.2934H84.8674V43.7195Z" fill="#1E1E1E"/>
<path d="M261.265 14.2614V3.62381H202.934V14.2614H226.313V75.0479H238.003V14.2614H261.265Z" fill="#1E1E1E"/>
<path d="M389.968 3.62381H375.006L344.262 36.0043V3.62381H332.455V75.0479H344.262V39.6281L375.707 75.0479H391.021L357.237 37.6409L389.968 3.62381Z" fill="#1E1E1E"/>
<path d="M441.871 3.62381V47.9278C441.871 51.3178 441.169 54.3571 439.766 56.812C438.364 59.3837 436.376 61.371 433.921 62.7737C431.467 64.1765 428.661 64.8779 425.505 64.8779C422.349 64.8779 419.543 64.1765 417.088 62.7737C414.517 61.371 412.529 59.3837 411.127 56.812C409.607 54.2402 408.906 51.2009 408.906 47.8109V3.62381H397.216V47.9278C397.216 53.3051 398.502 58.0978 400.957 62.423C403.411 66.6313 406.801 70.0213 411.127 72.4762C415.452 74.931 420.245 76.1 425.622 76.1C431.116 76.1 435.909 74.931 440.117 72.4762C444.325 70.0213 447.715 66.7482 450.17 62.423C452.625 58.2147 453.794 53.422 453.794 48.0447V3.62381H441.871Z" fill="#1E1E1E"/>
</svg>
