<svg xmlns="http://www.w3.org/2000/svg" viewBox="0 0 392.99 61.12">
    <defs>
        <style>.cls-1{fill:#1e1e1e;}</style>
    </defs>
    <g id="Layer_2" data-name="Layer 2">
        <g id="Layer_1-2" data-name="Layer 1">
            <polygon class="cls-1"
                points="266.58 34.56 257.23 41.54 251.74 37.44 256 34.26 248.88 16.23 243.01 30.92 235.16 25.06 245.47 0 252.46 0 266.58 34.56" />
            <polygon class="cls-1" points="266.6 61.12 266.61 61.12 266.6 61.12 266.6 61.12" />
            <polygon class="cls-1"
                points="277.44 61.12 266.61 61.12 239.16 40.6 235.63 49.44 240.62 45.73 246.1 49.83 230.97 61.12 220.32 61.12 233.84 28.26 261.92 49.25 259.85 44.01 267.96 37.95 277.44 61.12" />
            <polygon class="cls-1"
                points="39.29 42.17 10.04 0 0 0 0 61.12 10.04 61.12 10.04 18.94 39.29 61.12 49.33 61.12 49.33 0 39.29 0 39.29 42.17" />
            <polygon class="cls-1"
                points="72.64 34.31 100.76 34.31 100.76 25.5 72.64 25.5 72.64 9.17 103.29 9.17 103.29 0 62.6 0 62.6 61.12 103.73 61.12 103.73 51.95 72.64 51.95 72.64 34.31" />
            <polygon class="cls-1"
                points="225.52 9.17 225.52 0 175.66 0 175.66 9.17 195.57 9.17 195.57 61.12 205.61 61.12 205.61 9.17 225.52 9.17" />
            <polygon class="cls-1"
                points="334.62 0 321.79 0 295.51 27.77 295.51 0 285.46 0 285.46 61.12 295.51 61.12 295.51 30.82 322.4 61.12 335.5 61.12 306.62 29.12 334.62 0" />
            <path class="cls-1"
                d="M383.09,0V37.36a15.1,15.1,0,0,1-1.81,7.53,12.81,12.81,0,0,1-4.9,5,14.27,14.27,0,0,1-7.15,1.76,14.53,14.53,0,0,1-7.14-1.76,13,13,0,0,1-5-5,15.09,15.09,0,0,1-1.85-7.62V0h-9.9V37.36a23.74,23.74,0,0,0,3.14,12.18A22.94,22.94,0,0,0,357,58a24.14,24.14,0,0,0,12.22,3.1A23.89,23.89,0,0,0,381.46,58a22.91,22.91,0,0,0,8.43-8.44A23.65,23.65,0,0,0,393,37.45V0Z" />
            <path class="cls-1"
                d="M172.8,30.57c0-15.23-12.63-24-23.92-24-9.71,0-14.85,5.09-14.85,5.09s8.16-3.68,16.46,0a20.55,20.55,0,0,1,12.33,18.89,28.39,28.39,0,0,1-9.41,20.62C139.32,62.75,125,55.77,125,55.77a29,29,0,0,0,17.28,5.35A30.53,30.53,0,0,0,172.8,30.57Z" />
            <path class="cls-1"
                d="M111.74,30.57c0,15.23,12.63,24,23.92,24,9.71,0,14.85-5.1,14.85-5.1s-8.16,3.69-16.46,0a20.55,20.55,0,0,1-12.33-18.89A28.43,28.43,0,0,1,131.13,10c14.09-11.56,28.44-4.57,28.44-4.57A29,29,0,0,0,142.29,0,30.52,30.52,0,0,0,111.74,30.57Z" />
        </g>
    </g>
</svg>