<svg viewBox="0 0 46 47" xmlns="http://www.w3.org/2000/svg">
    <defs>
        <style>
            .cls-1{
            fill:#1E1E1E;
            }
            @media (prefers-color-scheme: dark) {
            .cls-1 {
            fill: #ffffff;
            }
            }
        </style>
    </defs>
<path d="M45.2002 23.5358C45.2002 12.2358 35.8436 5.75809 27.4945 5.75809C20.2971 5.75809 16.4824 9.50076 16.4824 9.50076C16.4824 9.50076 22.5283 6.76573 28.6461 9.50076C32.4607 11.2282 37.7869 15.6906 37.7869 23.4638C37.7869 30.5173 33.7563 36.3473 30.8053 38.7224C20.369 47.2874 9.7168 42.1052 9.7168 42.1052C9.7168 42.1052 14.5391 46.0638 22.5283 46.0638C35.4117 46.1358 45.2002 35.6995 45.2002 23.5358Z"/>
<path d="M0 23.5358C0 34.8358 9.35669 41.3135 17.7057 41.3135C24.9032 41.3135 28.7178 37.5709 28.7178 37.5709C28.7178 37.5709 22.672 40.3059 16.5541 37.5709C12.7395 35.8435 7.41338 31.381 7.41338 23.6078C7.41338 16.5543 11.4439 10.7244 14.3949 8.3492C24.7592 -0.287745 35.4115 4.89442 35.4115 4.89442C35.4115 4.89442 30.5892 0.935822 22.6 0.935822C9.71656 0.935822 0 11.3721 0 23.5358Z"/>
</svg>
