<svg xmlns="http://www.w3.org/2000/svg" viewBox="0 0 87.17 87.16">
    <defs>
        <style>
            .cls-1{
            fill:#000000;
            }
            @media (prefers-color-scheme: dark) {
            .cls-1 {
            fill: #ffffff;
            }
            }
        </style>
    </defs>
    <g id="Layer_2" data-name="Layer 2">
        <g id="Layer_1-2" data-name="Layer 1">
            <path class="cls-1"
                d="M87.17,43.59c0,.29,0,1.63,0,2A43.56,43.56,0,0,1,10.29,71.66c.38.33.77.66,1.17,1l.09.07c.41.33.83.65,1.26,1l0,0c.84.62,1.7,1.19,2.58,1.73a1.71,1.71,0,0,0,.23.13c.44.27.87.52,1.31.76l.17.09c.91.5,1.85,1,2.81,1.38l.05,0,1.52.62c.91.35,1.83.67,2.77.94q.42.14.84.24l.85.22a37.29,37.29,0,0,0,46.1-36.25,28.49,28.49,0,0,0-46.64-22l0,0,.38-.45a.53.53,0,0,1,.12-.14c.28-.34.58-.68.89-1s.57-.61.87-.91a1.7,1.7,0,0,1,.19-.19c.28-.29.56-.56.85-.83l.13-.12,1-.89h0c.36-.3.72-.6,1.1-.89s.75-.58,1.14-.86.75-.53,1.13-.78l.06,0q.59-.39,1.2-.75l.65-.38c.27-.16.55-.31.83-.46A34.8,34.8,0,0,1,87.12,41.59C87.14,42,87.17,43.28,87.17,43.59Z" />
            <path class="cls-1"
                d="M76.92,15.45c-.43-.37-.86-.73-1.31-1.09l-.89-.68c-.46-.35-.93-.68-1.41-1-.23-.16-.46-.32-.7-.47-.39-.25-.78-.5-1.18-.73s-.72-.42-1.08-.62a37.27,37.27,0,0,0-4.76-2.19l-.82-.3-.84-.28c-.56-.18-1.12-.35-1.69-.51l-.86-.22c-.56-.14-1.12-.26-1.69-.38l-.94-.17-.89-.14a37.61,37.61,0,0,0-14.58.72,37.27,37.27,0,0,0-28.2,36.2A28.48,28.48,0,0,0,61.76,65.52c-.27.33-.54.66-.82,1l-.15.17c-.26.29-.52.57-.79.85l-.13.14c-.25.26-.5.52-.76.77l-.32.31-.69.64c-.47.43-1,.84-1.45,1.24-.26.22-.52.42-.79.62s-.67.5-1,.74-.64.45-1,.67-.41.27-.62.39-.55.35-.83.51-.81.47-1.22.68A34.8,34.8,0,0,1,.11,46.44v0c0-.27-.11-2.53-.11-2.83S.08,41,.11,40.71A43.61,43.61,0,0,1,76.92,15.45Z" />
            <path class="cls-1" d="M25.41,21.64l0,0,.34-.42Z" />
        </g>
    </g>
</svg>