<?xml version="1.0" standalone="no"?>
<!DOCTYPE svg PUBLIC "-//W3C//DTD SVG 20010904//EN"
 "http://www.w3.org/TR/2001/REC-SVG-20010904/DTD/svg10.dtd">
<svg version="1.0" xmlns="http://www.w3.org/2000/svg"
 width="752.000000pt" height="752.000000pt" viewBox="0 0 752.000000 752.000000"
 preserveAspectRatio="xMidYMid meet">
<metadata>
Created by potrace 1.14, written by Peter Selinger 2001-2017
</metadata>
<g transform="translate(0.000000,752.000000) scale(0.100000,-0.100000)"
fill="#000000" stroke="none">
<path d="M3437 7364 c-2 -2 -37 -7 -78 -10 -41 -2 -85 -7 -99 -9 -32 -6 -131
-18 -147 -18 -7 0 -13 -3 -13 -6 0 -3 -12 -6 -27 -7 -30 0 -90 -10 -114 -18
-8 -3 -30 -7 -49 -10 -19 -3 -69 -15 -110 -26 -41 -11 -82 -22 -90 -24 -8 -2
-42 -12 -75 -22 -33 -10 -62 -18 -65 -19 -15 -3 -58 -17 -75 -25 -55 -25 -154
-58 -159 -53 -3 4 -6 2 -6 -3 0 -8 -55 -35 -80 -39 -3 0 -19 -9 -37 -18 -18
-9 -39 -17 -47 -17 -8 0 -16 -3 -18 -7 -1 -5 -55 -34 -118 -66 -143 -72 -307
-169 -365 -214 -5 -4 -36 -26 -67 -47 -32 -22 -58 -43 -58 -48 0 -4 -5 -8 -11
-8 -12 0 -181 -136 -254 -204 -27 -26 -63 -60 -80 -75 -75 -70 -220 -228 -298
-324 -12 -15 -29 -35 -37 -45 -8 -9 -26 -33 -40 -52 -13 -19 -27 -37 -31 -40
-14 -11 -170 -251 -224 -345 -56 -98 -153 -290 -187 -370 -56 -135 -70 -172
-108 -283 -23 -68 -43 -132 -46 -143 -10 -44 -13 -55 -23 -81 -6 -16 -9 -28
-6 -28 2 0 -2 -18 -10 -40 -8 -22 -14 -44 -15 -48 0 -4 -3 -20 -6 -37 -3 -16
-7 -39 -9 -50 -2 -11 -4 -20 -5 -20 -1 0 -3 -11 -5 -25 -2 -14 -8 -50 -13 -80
-35 -185 -47 -334 -47 -605 0 -202 5 -307 19 -395 3 -14 7 -43 10 -65 3 -22 7
-49 9 -60 3 -11 8 -38 12 -60 5 -22 9 -47 11 -55 2 -8 6 -31 10 -50 4 -19 8
-37 8 -40 1 -3 7 -23 13 -45 7 -22 23 -77 37 -121 43 -144 151 -395 224 -519
67 -114 106 -176 118 -186 8 -6 14 -15 14 -20 0 -9 115 -160 169 -223 129
-149 284 -295 426 -401 22 -17 42 -32 45 -35 11 -12 161 -111 234 -155 207
-125 581 -284 729 -310 17 -3 35 -9 40 -12 6 -4 27 -10 46 -14 20 -4 47 -10
61 -13 38 -10 247 -44 320 -53 36 -4 164 -7 285 -7 244 0 296 4 522 39 70 11
99 16 113 21 8 3 26 8 40 10 14 3 43 10 65 16 22 5 47 12 55 13 32 7 156 46
175 56 12 6 27 11 35 13 8 2 24 7 35 11 91 37 147 60 188 81 26 13 47 21 47
19 0 -2 38 19 85 46 47 27 88 49 90 49 16 0 288 200 282 207 -2 2 -35 -8 -73
-23 -38 -14 -80 -28 -94 -31 -13 -2 -30 -9 -37 -15 -7 -6 -13 -8 -13 -5 0 3
-21 -2 -47 -10 -27 -8 -55 -16 -63 -18 -117 -25 -224 -46 -260 -50 -25 -2 -56
-7 -69 -9 -109 -23 -530 -24 -651 -1 -14 2 -43 7 -65 10 -62 8 -219 43 -251
55 -16 6 -31 11 -34 11 -8 -1 -129 39 -185 61 -77 31 -244 113 -309 153 -32
19 -62 35 -66 35 -5 0 -10 3 -12 8 -1 4 -34 28 -73 53 -187 123 -395 313 -565
515 -44 52 -145 197 -191 274 -100 166 -228 469 -252 600 -3 14 -8 32 -11 40
-5 14 -11 42 -21 95 -2 11 -6 31 -9 44 -13 58 -27 184 -22 197 3 8 2 14 -2 14
-4 0 -8 15 -9 33 -4 64 -4 373 1 417 2 25 7 81 11 125 4 44 9 82 10 85 2 3 7
33 10 65 4 33 10 64 12 69 3 4 7 20 9 35 7 55 13 79 39 176 14 55 28 107 29
115 2 8 6 22 9 30 4 8 17 49 31 90 21 65 62 174 99 260 6 14 11 27 11 30 3 15
141 286 178 350 58 99 119 194 130 201 6 3 9 9 9 13 -2 6 106 157 119 166 4 3
11 12 16 21 43 75 306 340 460 463 67 53 126 96 132 96 6 0 12 4 14 8 2 4 39
33 84 63 104 70 116 78 134 86 8 4 17 9 20 13 8 10 164 97 188 104 12 4 22 12
22 17 0 5 6 9 14 9 7 0 33 10 57 23 48 25 238 108 254 111 6 1 15 4 20 8 36
21 355 114 463 134 34 6 64 12 92 19 43 9 241 34 335 41 113 9 324 9 435 0 47
-4 105 -9 130 -11 25 -2 61 -6 80 -9 19 -3 51 -8 70 -11 19 -2 62 -9 95 -15
33 -6 74 -13 90 -16 17 -3 37 -7 45 -10 8 -3 29 -8 45 -10 17 -3 41 -9 55 -14
14 -6 34 -11 45 -13 41 -8 80 -20 93 -30 6 -5 12 -7 12 -4 0 4 19 -1 43 -9 23
-9 47 -17 52 -18 6 -2 23 -8 38 -14 15 -7 39 -15 53 -18 13 -3 27 -10 30 -15
3 -5 13 -9 22 -9 34 0 -253 176 -423 260 -38 19 -72 35 -75 36 -3 0 -27 11
-55 23 -81 37 -352 136 -407 150 -4 1 -13 3 -20 5 -14 5 -66 18 -85 22 -6 1
-27 7 -45 13 -18 6 -44 12 -58 15 -14 3 -72 14 -130 26 -104 20 -193 34 -286
45 -27 3 -67 8 -89 11 -50 6 -602 13 -608 8z"/>
<path d="M4298 6595 c-2 -2 -44 -6 -94 -9 -49 -4 -103 -9 -120 -11 -16 -3 -42
-7 -59 -10 -16 -2 -48 -7 -70 -10 -22 -3 -51 -8 -65 -12 -14 -3 -34 -7 -45 -9
-50 -7 -169 -39 -270 -71 -60 -19 -114 -36 -120 -38 -5 -1 -23 -8 -40 -15 -16
-7 -46 -20 -65 -28 -19 -8 -37 -15 -40 -15 -3 1 -21 -7 -40 -17 -19 -10 -38
-19 -42 -20 -20 -5 -221 -117 -270 -151 -32 -21 -60 -39 -63 -39 -7 0 -175
-132 -175 -137 0 -2 8 0 18 6 31 16 251 87 284 91 4 1 22 6 40 11 41 12 56 16
103 23 20 4 40 8 44 10 3 2 31 7 61 11 30 4 66 9 80 12 120 18 200 24 345 25
162 1 324 -10 415 -28 14 -3 39 -7 55 -10 27 -3 73 -14 191 -43 51 -13 183
-58 206 -71 10 -6 22 -10 28 -10 30 0 390 -191 398 -212 2 -4 10 -8 18 -8 8 0
14 -4 14 -10 0 -5 5 -10 11 -10 12 0 13 -1 169 -123 366 -286 665 -702 797
-1107 8 -25 17 -52 20 -60 3 -8 8 -24 10 -35 2 -11 8 -31 13 -45 14 -38 50
-211 65 -321 23 -165 23 -565 0 -678 -2 -13 -7 -49 -10 -80 -3 -31 -7 -63 -10
-71 -5 -16 -15 -73 -19 -105 -2 -11 -6 -29 -9 -40 -3 -11 -8 -31 -11 -45 -6
-39 -36 -152 -46 -180 -6 -14 -11 -34 -13 -45 -2 -11 -8 -31 -14 -45 -6 -14
-16 -43 -23 -65 -7 -22 -17 -51 -23 -65 -6 -14 -11 -29 -13 -35 -4 -19 -63
-161 -78 -190 -9 -17 -16 -36 -16 -42 0 -7 -5 -13 -12 -13 -6 0 -9 -3 -5 -6 6
-7 -82 -180 -151 -294 -122 -202 -240 -365 -366 -505 -152 -169 -218 -228
-461 -413 -51 -38 -117 -82 -124 -82 -5 0 -11 -4 -13 -8 -11 -28 -381 -230
-543 -297 -49 -21 -103 -43 -120 -50 -62 -26 -284 -95 -370 -116 -49 -11 -94
-22 -100 -23 -10 -3 -59 -12 -105 -20 -14 -3 -36 -7 -50 -11 -14 -3 -50 -8
-80 -11 -30 -3 -68 -8 -85 -10 -353 -42 -792 -11 -1165 81 -39 9 -265 77 -272
81 -14 9 -138 54 -138 50 0 -7 164 -114 250 -163 123 -70 360 -183 383 -183 7
0 29 -9 49 -20 20 -11 47 -22 60 -25 21 -4 223 -73 223 -76 0 0 7 -2 15 -4 8
-1 81 -19 162 -39 81 -20 166 -38 190 -41 24 -3 50 -8 59 -11 10 -2 30 -6 45
-8 16 -2 49 -7 74 -10 187 -26 242 -29 525 -30 241 0 355 5 435 18 14 3 50 7
80 10 68 8 91 12 210 36 52 11 104 21 115 23 32 6 72 17 180 49 55 17 111 33
125 35 14 3 30 9 35 13 6 4 22 10 36 13 14 4 43 14 65 23 21 10 44 19 49 20
18 4 129 52 220 94 50 23 91 40 91 38 1 -1 10 4 20 13 11 9 37 25 59 36 41 21
79 42 150 84 49 29 248 161 255 169 3 3 21 17 40 30 19 14 42 30 50 37 110 89
152 124 185 153 59 52 305 301 345 351 19 23 40 47 45 53 6 6 26 32 45 56 19
25 38 47 42 48 4 2 8 10 8 17 0 7 4 15 9 17 5 1 45 57 90 123 44 66 85 126 91
132 6 7 9 13 6 13 -3 0 11 24 30 52 19 29 34 58 34 65 0 7 5 13 10 13 6 0 10
3 10 8 0 4 25 55 55 112 30 58 55 105 54 105 -2 0 24 59 56 131 57 125 133
356 180 542 33 133 37 152 51 237 3 22 8 43 10 46 2 3 6 33 9 65 4 32 8 70 10
83 15 87 20 210 19 446 -1 273 -6 352 -27 450 -3 11 -8 43 -11 70 -4 28 -9 58
-12 67 -5 16 -9 37 -19 88 -3 14 -16 66 -30 115 -14 50 -28 97 -30 105 -34
127 -164 411 -257 563 -26 43 -48 83 -48 88 0 5 -4 9 -8 9 -5 0 -15 12 -23 27
-14 28 -32 53 -56 78 -7 8 -13 17 -13 21 0 4 -7 14 -15 23 -8 9 -54 63 -103
121 -124 146 -302 315 -426 405 -16 11 -34 26 -41 33 -8 6 -18 12 -23 12 -6 0
-12 4 -14 8 -4 10 -94 71 -193 132 -106 65 -300 160 -435 214 -25 10 -54 22
-65 27 -80 33 -311 98 -440 123 -44 8 -89 17 -100 19 -19 4 -101 15 -175 24
-41 5 -438 12 -442 8z"/>
</g>
</svg>
