<svg xmlns="http://www.w3.org/2000/svg" viewBox="0 0 88.19 87.28"><defs><style>.cls-1{fill:#fff;}</style></defs><g id="Layer_2" data-name="Layer 2"><g id="Layer_1-2" data-name="Layer 1"><path class="cls-1" d="M3.2,84A7.62,7.62,0,0,0,9.33,87.1h.41c4.42-.24,9.28-2.45,16.71-11.56C31,70,36.11,62.9,41.07,56l-5.44-8.74S24,63.66,19.16,69.54s-7.67,8.33-9,9.22c-1.3-4-1.2-16.51,3.59-32.5a92.15,92.15,0,0,1,8.6-20.13c.44-.83.89-1.58,1.37-2.33,1.44,1.85,6,8.18,6.85,9.38,2.94,4.31,12.66,19.76,12.66,19.76l1.24,2a164,164,0,0,0,16.06,21C73.7,90,80.3,87.11,81.24,86.91a7.53,7.53,0,0,0,4.89-3.77c4.28-7.4,1.27-26.2-3.35-40.54-.86-2.78-1.82-5.41-2.84-7.91-.55-1.34-1.07-2.64-1.68-3.94-.45-1-.89-2-1.41-3-.68-1.48-1.47-2.95-2.26-4.42l-1.47-2.54C72.75,20.2,72.4,19.59,72,19L65.9,27.12c.13.27.31.51.44.79.69,1.26,1.37,2.6,2,4,.48,1,.89,1.88,1.3,2.81.55,1.16,1,2.33,1.51,3.52.92,2.3,1.82,4.73,2.64,7.26,5.06,15.79,5.58,28.35,4.48,32.12-1.54-.31-4.93-1.78-10.92-8.15-7.81-8.32-19.93-27.53-19.93-27.53l-3.83-6.13c-.18-.31-13.87-19.55-13.87-19.55-.86-1.1-6.1-7.26-6.1-7.26a.31.31,0,0,0-.13.17A41.13,41.13,0,0,0,20,12.91l-2.56,3.32a53.22,53.22,0,0,0-3.33,5.14A102.23,102.23,0,0,0,4.67,43.52C.08,58.86-2.35,77,3.2,84Z"/><path class="cls-1" d="M26,6.81,32.31,14c7.43-6,15.47-6.09,23,0A31.81,31.81,0,0,1,58,16.3c-4,5.07-8.28,11-12.19,16.5l5.41,8.67h0c.27-.41.58-.83.85-1.24C55.83,34.93,60,29.07,64,24c.65-.82,2-2.57,2-2.57L70,16l-1.13-1.37S65.21,10.2,64,9c-.89-.85-1.79-1.68-2.71-2.4C55.8,2.23,50,0,43.91,0,37.55,0,31.55,2.29,26,6.81Z"/></g></g></svg>