<svg width="1861" height="328" viewBox="0 0 1861 328" fill="none" xmlns="http://www.w3.org/2000/svg">
<path d="M97.2734 326.1L221.221 185.397L361.723 232.634L530.284 135.131L672.4 167.632L857.919 83.0488L1039 104.649L1156.48 204.776L1289.31 13L1456.46 144.417L1626.44 127.46L1720.71 326.1H97.2734Z" stroke="#1E1E1E" stroke-width="1.3" stroke-miterlimit="10"/>
<path d="M1006.49 326.1L1156.48 204.776L1363.6 326.1L1456.46 144.417" stroke="#1E1E1E" stroke-width="1.3" stroke-miterlimit="10"/>
<path d="M672.4 167.632L678.658 326.1L489.91 225.165" stroke="#1E1E1E" stroke-width="1.3" stroke-miterlimit="10"/>
<path d="M913.635 124.432L678.658 326.1L1156.48 204.776" stroke="#1E1E1E" stroke-width="1.3" stroke-miterlimit="10"/>
<path d="M1392.07 93.9497L1549.12 135.131" stroke="#1E1E1E" stroke-width="1.3" stroke-miterlimit="10"/>
<path d="M1659.95 198.114L1858.38 326.1H1720.71L1456.46 144.417L1156.48 204.776L913.634 124.432L672.4 167.632L489.909 225.165L267.247 326.1" stroke="#1E1E1E" stroke-width="1.3" stroke-miterlimit="10"/>
<path d="M168.937 244.747L3 326.1H97.2732" stroke="#1E1E1E" stroke-width="1.3" stroke-miterlimit="10"/>
<path d="M1289.31 13L1039 104.649L913.634 124.432L857.918 83.0488" stroke="#1E1E1E" stroke-width="1.3" stroke-miterlimit="10"/>
<path d="M767.279 124.432L530.284 135.131L489.91 225.165L361.723 232.634L267.248 326.1L221.221 185.397" stroke="#1E1E1E" stroke-width="1.3" stroke-miterlimit="10"/>
<path d="M1156.48 61.6507L1053.53 27.7366L935.436 92.3349" stroke="#1E1E1E" stroke-width="1.3" stroke-miterlimit="10"/>
<path d="M673.207 128.671L555.719 27.7366L380.294 152.29H500.811" stroke="#1E1E1E" stroke-width="1.3" stroke-miterlimit="10"/>
<path d="M805.028 107.273L555.719 27.7366" stroke="#1E1E1E" stroke-width="1.3" stroke-miterlimit="10"/>
<path d="M483.047 79.4152L319.128 89.9125L276.938 204.171L380.295 152.29L448.325 182.571" stroke="#1E1E1E" stroke-width="1.3" stroke-miterlimit="10"/>
<path d="M79.1055 288.754L319.129 89.9124" stroke="#1E1E1E" stroke-width="1.3" stroke-miterlimit="10"/>
<rect x="3" width="1855" height="277" fill="url(#paint0_linear_198_536)"/>
<defs>
<linearGradient id="paint0_linear_198_536" x1="930.5" y1="0" x2="930.5" y2="277" gradientUnits="userSpaceOnUse">
<stop stop-color="white"/>
<stop offset="0.45" stop-color="white" stop-opacity="0.9"/>
<stop offset="1" stop-color="white" stop-opacity="0"/>
</linearGradient>
</defs>
</svg>
