<svg xmlns="http://www.w3.org/2000/svg" xmlns:xlink="http://www.w3.org/1999/xlink"
    viewBox="0 0 643.36 146.1">
    <defs>
        <style>
            .cls-1{fill:none;stroke:#1e1e1e;stroke-linejoin:bevel;stroke-width:0.5px;}.cls-2{fill:url(#linear-gradient);}</style>
        <linearGradient id="linear-gradient" x1="321.61" x2="321.61" y2="145.85"
            gradientUnits="userSpaceOnUse">
            <stop offset="0" stop-color="#fff" />
            <stop offset="0.2" stop-color="#fff" stop-opacity="0.99" />
            <stop offset="0.33" stop-color="#fff" stop-opacity="0.95" />
            <stop offset="0.45" stop-color="#fff" stop-opacity="0.89" />
            <stop offset="0.55" stop-color="#fff" stop-opacity="0.81" />
            <stop offset="0.65" stop-color="#fff" stop-opacity="0.7" />
            <stop offset="0.74" stop-color="#fff" stop-opacity="0.57" />
            <stop offset="0.83" stop-color="#fff" stop-opacity="0.41" />
            <stop offset="0.91" stop-color="#fff" stop-opacity="0.22" />
            <stop offset="0.99" stop-color="#fff" stop-opacity="0.02" />
            <stop offset="1" stop-color="#fff" stop-opacity="0" />
        </linearGradient>
    </defs>
    <g id="Layer_2" data-name="Layer 2">
        <g id="Layer_1-2" data-name="Layer 1">
            <polygon class="cls-1"
                points="32.7 145.85 75.67 97.12 124.36 113.47 182.78 79.7 232.09 90.95 296.42 61.62 359.13 69.13 399.87 103.82 445.97 37.35 503.86 82.91 562.82 77.02 595.51 145.85 32.7 145.85" />
            <polyline class="cls-1" points="347.88 145.85 399.87 103.82 471.69 145.85 503.86 82.91" />
            <polyline class="cls-1" points="232.09 90.95 234.24 145.85 168.84 110.9" />
            <polyline class="cls-1" points="315.69 75.94 234.24 145.85 399.87 103.82" />
            <line class="cls-1" x1="481.57" y1="65.37" x2="536.02" y2="79.7" />
            <polyline class="cls-1"
                points="574.44 101.48 643.22 145.85 595.51 145.85 503.86 82.91 399.87 103.82 315.69 75.94 232.09 90.95 168.84 110.9 91.66 145.85" />
            <polyline class="cls-1" points="57.52 117.7 0 145.85 32.7 145.85" />
            <polyline class="cls-1" points="445.97 37.35 359.13 69.13 315.69 75.94 296.42 61.62" />
            <polyline class="cls-1"
                points="265.01 75.94 182.78 79.7 168.84 110.9 124.36 113.47 91.66 145.85 75.67 97.12" />
            <polyline class="cls-1" points="399.87 54.22 364.22 42.44 323.25 64.83" />
            <polyline class="cls-1" points="232.39 77.43 191.63 42.44 130.79 85.59 172.58 85.59" />
            <line class="cls-1" x1="278.04" y1="70" x2="191.63" y2="42.44" />
            <polyline class="cls-1"
                points="166.41 60.33 109.62 64.02 94.97 103.6 130.79 85.59 154.37 96.12" />
            <line class="cls-1" x1="26.41" y1="132.93" x2="109.62" y2="64.02" />
            <rect class="cls-2" width="643.22" height="145.85" />
        </g>
    </g>
</svg>